<?xml version="1.0" encoding="UTF-8" standalone="no"?>
<!-- Created with Inkscape (http://www.inkscape.org/) -->

<svg
   xmlns:dc="http://purl.org/dc/elements/1.1/"
   xmlns:cc="http://creativecommons.org/ns#"
   xmlns:rdf="http://www.w3.org/1999/02/22-rdf-syntax-ns#"
   xmlns:svg="http://www.w3.org/2000/svg"
   xmlns="http://www.w3.org/2000/svg"
   xmlns:sodipodi="http://sodipodi.sourceforge.net/DTD/sodipodi-0.dtd"
   xmlns:inkscape="http://www.inkscape.org/namespaces/inkscape"
   width="718"
   height="900"
   id="svg3834"
   sodipodi:version="0.32"
   inkscape:version="0.48.4 r9939"
   sodipodi:docname="Volgograd_districts_all.svg"
   inkscape:output_extension="org.inkscape.output.svg.inkscape"
   version="1.0"
   style="display:inline">
  <defs
     id="defs3836">
    <inkscape:perspective
       sodipodi:type="inkscape:persp3d"
       inkscape:vp_x="0 : 526.18109 : 1"
       inkscape:vp_y="0 : 1000 : 0"
       inkscape:vp_z="744.09448 : 526.18109 : 1"
       inkscape:persp3d-origin="372.04724 : 350.78739 : 1"
       id="perspective3842" />
    <inkscape:perspective
       id="perspective3851"
       inkscape:persp3d-origin="372.04724 : 350.78739 : 1"
       inkscape:vp_z="744.09448 : 526.18109 : 1"
       inkscape:vp_y="0 : 1000 : 0"
       inkscape:vp_x="0 : 526.18109 : 1"
       sodipodi:type="inkscape:persp3d" />
    <inkscape:perspective
       id="perspective3864"
       inkscape:persp3d-origin="372.04724 : 350.78739 : 1"
       inkscape:vp_z="744.09448 : 526.18109 : 1"
       inkscape:vp_y="0 : 1000 : 0"
       inkscape:vp_x="0 : 526.18109 : 1"
       sodipodi:type="inkscape:persp3d" />
    <inkscape:perspective
       id="perspective4475"
       inkscape:persp3d-origin="372.04724 : 350.78739 : 1"
       inkscape:vp_z="744.09448 : 526.18109 : 1"
       inkscape:vp_y="0 : 1000 : 0"
       inkscape:vp_x="0 : 526.18109 : 1"
       sodipodi:type="inkscape:persp3d" />
    <inkscape:perspective
       id="perspective4488"
       inkscape:persp3d-origin="372.04724 : 350.78739 : 1"
       inkscape:vp_z="744.09448 : 526.18109 : 1"
       inkscape:vp_y="0 : 1000 : 0"
       inkscape:vp_x="0 : 526.18109 : 1"
       sodipodi:type="inkscape:persp3d" />
  </defs>
  <sodipodi:namedview
     id="base"
     pagecolor="#ffffff"
     bordercolor="#666666"
     borderopacity="1.0"
     gridtolerance="10000"
     guidetolerance="10"
     objecttolerance="10"
     inkscape:pageopacity="0.0"
     inkscape:pageshadow="2"
     inkscape:zoom="1.2750549"
     inkscape:cx="383.21134"
     inkscape:cy="599.07478"
     inkscape:document-units="px"
     inkscape:current-layer="layer3"
     showgrid="false"
     inkscape:window-width="1600"
     inkscape:window-height="838"
     inkscape:window-x="-8"
     inkscape:window-y="-8"
     inkscape:object-nodes="true"
     inkscape:snap-smooth-nodes="true"
     inkscape:window-maximized="1" />
  <metadata
     id="metadata3839">
    <rdf:RDF>
      <cc:Work
         rdf:about="">
        <dc:format>image/svg+xml</dc:format>
        <dc:type
           rdf:resource="http://purl.org/dc/dcmitype/StillImage" />
      </cc:Work>
    </rdf:RDF>
  </metadata>
  <g
     inkscape:groupmode="layer"
     id="layer5"
     inkscape:label="Districts"
     style="display:inline">
    <path
       id="path4510"
       d="m 313.11702,483.9096 c 1.59341,-1.7473 10.46186,-3.84801 17.03994,-4.03634 3.87664,-0.11099 7.66814,-0.9576 10.55673,-2.35725 3.1562,-1.52932 6.37474,-2.18408 10.73614,-2.18408 3.62896,0 7.45898,-0.63683 9.17647,-1.52581 2.57499,-1.33284 2.94784,-2.07289 2.94784,-5.85127 0,-2.37901 -0.50162,-5.76571 -1.11467,-7.52601 -0.61308,-1.7603 -0.89396,-3.42146 -0.62422,-3.69146 0.26976,-0.27002 3.35666,0.0171 6.8598,0.63811 3.50313,0.62098 11.31511,1.72519 17.35998,2.45382 11.9867,1.44483 23.23741,3.7661 26.35957,5.43859 3.78807,2.02921 5.03872,1.16231 8.63487,-5.98534 25.37819,3.28983 7.23635,2.12903 -1.24694,12.82987 -1.159,2.23465 -2.90675,7.31502 -3.88384,12.64531 -1.57118,8.57121 0.58169,11.62335 1.65231,22.16195 1.05744,10.4088 -1.47132,12.99756 0.21413,24.8521 2.526,17.76651 19.30156,38.29553 30.22071,51.34253 4.66912,5.57901 8.48933,10.52429 8.48933,10.98954 0,1.69221 -6.58933,7.0421 -10.26312,8.33268 -2.07272,0.72813 -4.73917,2.35796 -5.9254,3.62184 l -2.15682,2.29796 2.17862,3.87994 c 1.19823,2.13396 2.17861,4.79199 2.17861,5.9067 0,1.13365 -2.64604,4.71674 -6.00471,8.13114 -4.90025,4.98157 -6.43636,5.99592 -8.35156,5.51479 -1.90891,-0.47956 -3.16559,0.33729 -6.73446,4.37743 -2.41319,2.73186 -9.72728,10.64147 -16.25352,17.57693 l -11.8659,12.60992 -0.81662,8.10815 c -0.44915,4.45948 -1.04563,8.33737 -1.32551,8.61753 -0.27991,0.28015 -4.46436,-1.99042 -9.29881,-5.04572 -5.82579,-3.68181 -14.1808,-10.70033 -24.77632,-20.81302 -8.79253,-8.39188 -16.13378,-15.857 -16.3139,-16.58919 -0.19683,-0.8001 1.71036,-2.17894 4.7801,-3.45585 2.80917,-1.16854 4.97982,-2.46254 4.82366,-2.87555 -0.38021,-1.00563 -26.98931,-24.53969 -44.58482,-39.43241 -7.78217,-6.5868 -14.14942,-12.36783 -14.14942,-12.84673 0,-1.61704 4.12241,-6.67996 5.43906,-6.67996 0.71849,0 6.36405,4.05034 12.54566,9.00077 6.18161,4.95042 11.44049,9.00076 11.68641,9.00076 0.24592,0 2.46396,-1.18304 4.92897,-2.62898 3.41475,-2.00305 4.29887,-3.01502 3.71334,-4.25037 -0.42269,-0.89175 -0.80194,-4.12042 -0.8428,-7.17482 -0.0635,-4.7477 -0.6936,-6.53502 -4.34302,-12.31885 -3.16706,-5.01938 -4.18925,-7.58673 -3.9607,-9.94787 0.27843,-2.8766 0.66083,-3.21186 3.9788,-3.48832 5.66658,-0.47214 5.99571,-1.58425 3.47071,-11.72675 -1.96795,-7.90482 -2.58346,-9.14929 -5.18677,-10.48686 -5.53398,-2.84335 -5.56293,-2.88321 -3.9194,-5.39391 1.3503,-2.06275 1.34714,-2.44233 -0.0298,-3.58618 -1.26011,-1.04678 -1.85434,-1.01024 -3.26974,0.20102 -0.95138,0.81417 -5.55152,2.97603 -10.22257,4.80414 -4.67103,1.8281 -12.02591,5.07889 -16.34421,7.22396 -11.48199,5.70361 -13.10026,4.25918 -7.18878,-6.41657 3.28655,-5.93529 11.45616,-31.86034 9.04128,-34.66628 7.42783,-3.33714 14.80013,-5.3517 21.98535,-9.57573 z"
       style="fill:#d6cdbc;fill-opacity:1;stroke:#ffffff;stroke-width:2.99885345;stroke-linecap:round;stroke-linejoin:round;stroke-miterlimit:4;stroke-opacity:1;stroke-dasharray:none"
       sodipodi:nodetypes="cssssssssssccsssssscccsssscccssssssssssssssssssssssssscc"
       inkscape:connector-curvature="0" />
    <path
       id="path4508"
       d="m 453.08213,330.67267 c -1.37383,-0.64648 -3.17229,-1.97825 -3.9966,-2.9595 -0.95374,-1.13535 -3.49701,-1.99277 -6.99405,-2.35796 -3.13724,-0.32762 -7.0318,-1.39192 -8.70738,-2.57253 -3.9018,-2.74919 -10.29268,-3.41139 -19.41851,-4.29212 -6.80287,-0.65655 -9.84958,-0.82308 -14.4021,-2.90925 -4.67554,-2.21427 -5.04167,-2.59296 -7.6797,-0.12482 -1.0688,1.00502 -2.67865,1.61258 -5.7504,0.0226 -2.19442,-1.13584 -2.86137,-1.09568 -4.70426,-0.7007 -2.91025,0.62374 -4.68425,1.03554 -7.63237,0.92083 0.0955,-2.08206 0.23837,-5.14474 0.27447,-10.78399 0.0581,-9.06932 2.43001,-27.23849 4.62099,-35.39699 1.09248,-4.06796 1.00816,-4.44871 -1.5851,-7.15802 l -2.73893,-2.86151 2.24859,-3.04422 c 1.23672,-1.67433 2.85462,-3.27701 3.59532,-3.56151 0.74071,-0.28451 1.34675,-1.80603 1.34675,-3.38118 0,-2.84995 -0.026,-2.86174 -5.34133,-2.42054 -4.90108,0.40682 -5.72294,0.15179 -9.9715,-3.09426 -6.007,-4.58951 -8.45559,-5.3566 -10.06524,-3.1532 -1.8449,2.52541 -4.68567,1.17701 -9.45986,-4.49019 -5.44998,-6.46938 -7.41595,-7.04012 -10.71845,-3.11167 -2.52232,3.00041 -2.77995,3.06963 -11.42508,3.06963 -5.4915,0 -9.10882,-0.42799 -9.54162,-1.12891 -0.40628,-0.65801 1.54892,-3.12667 4.68701,-5.91791 l 5.38404,-4.78897 -7.49363,-3.44486 c -4.12149,-1.89469 -11.16125,-5.29116 -15.64388,-7.54775 l -8.15026,-4.10287 -3.72716,2.96473 c -2.04993,1.63062 -4.85219,2.96475 -6.22726,2.96475 -1.37506,0 -5.81004,1.9913 -9.85552,4.4251 -6.22847,3.74713 -8.30713,4.47495 -13.56713,4.75041 -5.38943,0.28223 -6.26118,0.0805 -6.58537,-1.52373 -0.41221,-2.03982 4.37029,-7.65178 6.52085,-7.65178 1.66621,0 12.92872,-5.63378 13.67335,-6.83975 0.30023,-0.4862 -1.01588,-5.48081 -2.92465,-11.09912 -1.90879,-5.61831 -3.47051,-10.60992 -3.47051,-11.09247 0,-0.90085 4.70766,-3.29708 8.79149,-4.47493 1.37397,-0.39628 3.18925,-0.0773 4.51737,0.7937 2.20899,1.44875 10.67076,2.786 10.67076,1.68636 0,-0.31707 -0.54313,-1.12012 -1.20694,-1.78455 -0.94317,-0.94404 -0.0225,-2.4085 4.21226,-6.70057 2.98056,-3.02088 5.98076,-5.4925 6.66712,-5.4925 0.68634,0 1.72917,-0.90008 2.31737,-2.00017 0.58821,-1.10009 1.64351,-2.00017 2.34513,-2.00017 1.41665,0 4.45256,3.78564 7.01767,8.75074 2.0198,3.90957 4.09856,4.09042 8.62192,0.75007 1.86213,-1.37512 3.97885,-2.50021 4.70385,-2.50021 0.725,0 2.24933,-0.56255 3.38743,-1.25011 2.32917,-1.40715 1.78397,-1.95197 9.25726,9.25079 3.96062,5.93712 4.62263,6.4863 7.63774,6.33615 1.81569,-0.0904 4.24284,-0.65765 5.39368,-1.26049 1.33771,-0.70073 3.71418,-0.80618 6.58862,-0.29232 4.25127,0.75997 4.48048,0.9681 4.20788,3.82083 -0.19423,2.03262 0.3763,3.6191 1.74852,4.86209 1.12025,1.01476 2.03681,2.38911 2.03681,3.05413 0,1.35054 6.94519,6.48156 8.77325,6.48156 0.6447,0 1.90869,1.1251 2.80886,2.50022 0.90017,1.37512 2.11801,2.50021 2.70631,2.50021 0.5883,0 2.02107,0.89467 3.18395,1.98817 1.85687,1.74605 2.50449,1.84075 5.3183,0.77766 2.99354,-1.13098 3.4075,-1.00679 6.3025,1.89093 l 3.09853,3.10142 -3.1069,1.837 c -3.94239,2.33102 -4.18707,5.4061 -0.43016,5.4061 1.4722,0 4.11514,-0.52063 5.8732,-1.15694 2.76406,-1.00044 3.6684,-0.865 6.68506,1.00113 4.36157,2.69812 8.4212,2.08863 14.73955,-2.2129 7.31127,-4.97754 21.46379,-19.23739 24.0094,-24.1915 2.7796,-5.40949 6.16978,-7.44269 12.40998,-7.44269 3.90929,0 3.96316,0.21979 5.12844,0.21498 3.58089,1.2638 3.58875,1.63538 7.41587,2.85552 9.15556,2.78351 10.98536,5.0333 10.98536,13.50676 0,3.46866 -0.48604,6.60733 -1.08011,6.97483 -1.58402,0.97989 -0.2058,5.29422 3.00006,9.39125 1.53202,1.95787 2.96321,4.07329 3.18042,4.70094 0.21724,0.62763 2.64477,2.91323 5.39458,5.07911 5.31991,4.19026 10.48721,12.94314 10.48721,17.76427 0.60218,3.97229 1.76835,5.55666 3.63553,7.81615 -2.19671,4.11283 -4.63468,12.18855 -4.63468,15.0782 0,0.70211 1.09282,2.30416 2.42847,3.56012 1.37113,1.28933 2.71988,4.01009 3.09781,6.24908 l 0.66934,3.96553 -14.65159,14.60363 c -8.0584,8.03201 -18.08725,17.67442 -22.28636,21.4276 -6.84141,6.11488 -6.0461,5.22239 -9.04448,9.04405 -2.22295,-0.0372 -8.21332,-1.22056 -9.58716,-1.86702 z"
       style="fill:#d6cdbc;fill-opacity:1;stroke:#ffffff;stroke-width:2.99885345;stroke-linecap:round;stroke-linejoin:round;stroke-miterlimit:4;stroke-opacity:1;stroke-dasharray:none"
       sodipodi:nodetypes="cssssccsscsscccsssssssssccccccsssssssssssssssssssssssssssssssscccssssssccsssssccsscccscc"
       inkscape:connector-curvature="0" />
    <path
       id="path4506"
       d="m 622.59352,775.28366 c -0.95592,-1.75985 -3.18051,-5.05084 -4.94353,-7.31343 -1.76304,-2.26259 -4.91035,-6.71827 -6.99405,-9.90164 -3.78051,-5.77549 -3.79731,-5.78659 -7.91233,-5.20754 -3.92105,0.55175 -4.3202,0.35693 -8.11917,-3.96294 -2.19747,-2.49882 -4.43891,-4.54328 -4.98099,-4.54328 -0.54208,0 -2.67463,1.34354 -4.73903,2.98565 -2.06439,1.64213 -4.15269,2.73864 -4.64068,2.43681 -1.57751,-0.97589 -3.8426,-6.19404 -4.96734,-11.4434 -1.32673,-6.19215 -3.79679,-10.66156 -10.39336,-18.80614 -5.68352,-7.01725 -7.67531,-7.57645 -12.5031,-3.51032 l -3.1645,2.66524 -4.65559,-1.6701 c -6.7637,-2.42635 -8.83957,-2.16516 -10.65049,1.34004 -1.16922,2.26316 -2.24588,3.00025 -4.38239,3.00025 -1.55781,0 -4.53948,1.15957 -6.62596,2.5768 -2.08645,1.41724 -6.08335,3.47793 -8.88199,4.57933 -2.79864,1.10139 -6.56629,2.91405 -8.37254,4.02814 -2.40508,1.48341 -4.18937,1.8556 -6.66615,1.39052 -4.14853,-0.77899 -5.80008,1.17118 -8.17915,9.65803 -1.9457,6.94087 -3.92996,9.06735 -5.91962,6.34372 -1.01202,-1.38532 -1.08114,-2.3569 -0.2749,-3.86477 0.92338,-1.72697 0.52601,-2.48267 -2.78639,-5.29889 -3.52246,-2.99481 -6.47108,-4.08313 -16.10296,-5.9435 -2.50053,-0.48297 -3.24724,-1.13787 -3.24724,-2.84793 0,-3.69701 1.74727,-4.62386 5.64429,-2.99405 4.24811,1.77663 5.629,1.08828 4.18417,-2.08571 -1.26108,-2.7704 -1.98958,-2.99334 -19.5219,-5.97442 l -13.19042,-2.24281 -8.29132,-6.32151 c -8.25967,-6.29742 -10.78915,-8.68174 -10.78915,-10.17002 0,-0.43079 1.43448,-1.52575 3.18773,-2.43325 3.06276,-1.58529 3.11172,-1.70561 1.24894,-3.06913 -1.06634,-0.78054 -8.25147,-3.4187 -15.96695,-5.86259 -7.71546,-2.44389 -14.80283,-5.01217 -15.74966,-5.70729 -1.52679,-1.12089 -1.62109,-2.25362 -0.8336,-10.01382 l 0.88792,-8.74995 11.8643,-12.60821 c 6.52535,-6.93451 13.83872,-14.84335 16.25191,-17.57521 3.56887,-4.04014 4.82555,-4.85699 6.73446,-4.37743 1.9152,0.48113 3.45131,-0.53322 8.35156,-5.51479 3.35867,-3.4144 6.00471,-6.99749 6.00471,-8.13114 0,-1.11471 -0.98038,-3.77274 -2.17861,-5.9067 l -2.17862,-3.87994 2.15682,-2.29796 c 1.18623,-1.26388 3.85268,-2.89371 5.9254,-3.62184 3.67379,-1.29058 10.26312,-6.64047 10.26312,-8.33268 0,-0.46525 -3.82021,-5.41053 -8.48933,-10.98954 -10.91915,-13.047 -23.63467,-34.64961 -30.22071,-51.34253 -4.4583,-11.29997 -1.92954,-14.4433 -2.98698,-24.8521 -1.07062,-10.5386 -0.72793,-12.20432 0.84325,-20.77553 0.97709,-5.33029 1.06113,-12.35165 2.22013,-14.5863 8.59181,-16.56547 10.94648,-23.73517 28.29489,-50.46525 l 17.9694,-31.05394 1.57549,-2.62909 c 10.96045,-12.40658 22.1378,-20.09432 33.98845,-31.49143 10.63577,-10.22873 12.4379,-11.79992 16.30269,-15.72466 0,0 1.95888,-2.3451 4.50886,-5.4932 4.90083,3.6169 3.93611,7.45567 3.93611,7.45567 0,5.86954 -1.75944,15.53183 -7.57379,41.59266 -8.53004,38.23296 -13.83275,40.12802 -16.09011,55.14744 -1.14959,7.64883 -9.36697,11.82825 -9.36697,19.3099 0,8.38748 -0.0399,9.80223 10.59537,16.67754 8.00472,5.17477 8.08994,5.20219 20.22737,6.5084 9.46765,1.0189 15.30378,1.06854 26.1418,0.22234 13.35206,-1.04247 14.35944,-0.98608 23.39005,1.30918 5.19037,1.31921 11.61567,3.33626 14.27843,4.48234 2.66277,1.14609 9.25532,2.89441 14.65011,3.88513 10.48375,1.92529 16.09162,5.05228 18.15279,10.12209 0.54143,1.33175 3.73244,7.82183 7.09112,14.42239 6.11385,12.0151 10.17212,16.34737 17.44921,23.97978 7.17986,7.53042 7.81864,15.19675 6.01704,24.33788 -1.83878,9.3298 -14.18962,3.1086 -29.15369,0.4459 -6.25926,-1.11376 -12.88023,-2.64035 -14.71332,-3.39241 -3.17568,-1.30292 -3.44448,-1.23752 -5.70057,1.38678 -3.18035,3.69941 -1.00191,8.58577 0.44246,16.04637 2.21575,11.44541 7.31399,21.43305 22.57907,31.71191 25.46422,17.14649 39.97131,28.0795 51.95585,39.15555 7.14392,6.60239 13.58674,12.83881 14.31734,13.85872 1.17464,1.63973 0.87563,2.35379 -2.58308,6.16868 -2.15134,2.37285 -4.19884,5.10861 -4.55003,6.07945 -0.3512,0.97084 -1.72603,2.17901 -3.05517,2.68481 -1.32912,0.50581 -5.72443,3.81939 -9.76732,7.3635 -6.35877,5.57427 -7.65273,7.29155 -9.58895,12.72588 -1.53938,4.32052 -1.92518,6.65965 -1.2356,7.49133 0.55148,0.6651 5.15564,2.92345 10.23147,5.01854 5.07584,2.09508 9.79081,4.23452 10.47773,4.75429 0.90439,0.6843 1.25316,5.25676 1.26423,16.5739 0.008,8.59589 0.42667,16.27974 0.92945,17.07511 0.56556,0.89479 0.52053,2.18239 -0.1181,3.37679 -0.72708,1.35982 -0.68605,2.69103 0.13885,4.50319 1.11209,2.44311 0.76655,2.95375 -6.86162,10.14126 -4.41797,4.16266 -9.4165,8.38681 -11.10783,9.38679 l -3.07515,1.81827 -9.35396,-9.18169 c -9.87269,-9.69082 -11.19856,-10.22617 -14.977,-6.04722 -1.42505,1.57614 -1.50664,2.2721 -0.48941,4.17456 1.09041,2.03937 0.8937,2.55542 -1.84272,4.83362 -1.68489,1.40281 -4.45119,3.36628 -6.14734,4.36336 l -3.08389,1.81296 -1.73802,-3.19957 z"
       style="fill:#d6cdbc;fill-opacity:1;stroke:#ffffff;stroke-width:2.99885345;stroke-linecap:round;stroke-linejoin:round;stroke-miterlimit:4;stroke-opacity:1;stroke-dasharray:none"
       sodipodi:nodetypes="cssssssssscccsssssssssssssscccssssscccsssscccssssssscccscccssssssssssszzsssssssssssssssssssscccsssccc"
       inkscape:connector-curvature="0" />
    <path
       id="path4504"
       d="m 594.87756,201.14822 c -1.09906,-1.12293 -3.97512,-3.41341 -6.39122,-5.08996 -3.27627,-2.2734 -4.80016,-2.801 -5.99491,-2.07558 -0.88109,0.53497 -3.05495,1.81923 -4.83082,2.85392 l -3.22884,1.88124 -3.01585,-2.89206 c -1.92969,-1.85048 -3.01586,-3.88689 -3.01586,-5.65432 0,-1.9816 -0.9883,-3.51678 -3.49702,-5.43207 -3.1363,-2.39439 -3.49704,-3.16259 -3.49704,-7.44702 0,-4.59533 -0.15577,-4.85435 -4.09177,-6.80356 -2.81252,-1.39283 -5.1724,-1.85081 -7.54826,-1.46491 -2.00461,0.32561 -4.4773,0.0146 -5.88677,-0.74042 -1.89567,-1.01549 -3.587,-1.06057 -7.68878,-0.20497 -2.89218,0.60328 -8.29105,1.38683 -11.99748,1.74121 -6.5607,0.62727 -6.76461,0.57683 -7.70781,-1.90625 -0.57926,-1.52501 -3.16011,-3.78843 -6.41854,-5.6291 -2.99734,-1.69317 -5.91862,-3.64401 -6.49171,-4.3352 -1.38873,-1.67488 -1.51834,-7.24293 -0.42236,-18.1458 0.85797,-8.53521 1.15793,-9.36285 5.7995,-16.00136 4.98368,-7.12786 16.36352,-18.80097 22.22148,-22.79417 2.84045,-1.936261 3.16527,-2.605911 2.63955,-5.441841 -0.53026,-2.86038 -0.27973,-3.35558 2.16919,-4.28753 1.91193,-0.72759 3.08938,-0.732659 3.80498,-0.01639 0.56996,0.57049 1.90346,1.03725 2.96334,1.03725 1.05987,0 4.56181,1.80016 7.78209,4.00034 3.22025,2.20019 6.21422,4.000341 6.65324,4.000341 1.19851,0 8.88564,-8.229831 18.68275,-20.0017 4.80661,-5.775492 9.64584,-11.221005 10.75379,-12.10114 1.79763,-1.427982 1.88776,-1.984578 0.83731,-5.17045 -0.64745,-1.963607 -1.86359,-4.140403 -2.70252,-4.837312 -1.3431,-1.115704 -1.24745,-1.476936 0.80047,-3.023127 1.32618,-1.001275 2.40988,-2.962612 2.52139,-4.563379 0.10758,-1.544041 0.33239,-3.873499 0.49958,-5.17656 0.3368,-2.624864 -0.59184,-3.314142 -7.04601,-5.229885 -2.39393,-0.71056 -4.60853,-1.959597 -4.9214,-2.775626 -0.8107,-2.11466 5.49704,-7.155989 12.46609,-9.963268 3.19013,-1.285049 8.64319,-3.683284 12.11794,-5.329404 3.47472,-1.64613 6.95926,-2.746534 7.74342,-2.445337 0.96246,0.36967 1.42571,2.11661 1.42571,5.376456 0,4.285075 0.42192,5.226756 3.74681,8.362452 4.55814,4.298756 8.86366,5.606528 21.23195,6.449039 8.7039,0.592901 9.86523,0.923679 13.98812,3.984249 2.4729,1.835707 9.36767,6.123582 15.3217,9.528591 5.95404,3.40501 11.07706,6.847063 11.38452,7.648991 0.73029,1.904892 -13.62698,57.3347 -15.3329,59.19646 -1.05801,1.15465 -1.80673,1.20001 -3.91765,0.2373 -4.51436,-2.05879 -6.12187,0.66655 -2.24605,3.80792 1.95487,1.58445 5.12085,3.21286 4.04611,5.57385 -0.70545,1.54975 -4.01,3.16698 -3.65597,5.38305 0.56814,3.55625 -0.30005,5.35481 -12.55299,26.00522 -7.23983,12.20161 -13.78917,22.42512 -14.55408,22.71892 -0.76492,0.2938 -3.06704,-0.0196 -5.11583,-0.69636 0,0 0.89948,3.93217 -1.49024,2.92874 -1.45916,3.01634 -9.51048,9.25375 -9.51048,9.25375 -5.67917,5.8521 -8.04099,9.47061 -9.95956,12.1341 -0.69416,-0.86606 -5.77123,-5.30441 -6.87031,-6.42733 z"
       style="fill:#d6cdbc;fill-opacity:1;stroke:#ffffff;stroke-width:2.99885345;stroke-linecap:round;stroke-linejoin:round;stroke-miterlimit:4;stroke-opacity:1;stroke-dasharray:none"
       sodipodi:nodetypes="csscccsssssssssssssssssssssssssssssssssssssssssssssccccc"
       inkscape:connector-curvature="0" />
    <path
       id="path4502"
       d="m 488.9363,347.28131 c -9.32778,-9.4476 -17.23517,-13.79189 -26.29347,-14.72751 1.91704,-3.70222 5.84692,-6.29107 9.07094,-9.05816 4.19911,-3.75318 14.22796,-13.39559 22.28636,-21.4276 l 14.65159,-14.60363 -0.66934,-3.96553 c -0.37793,-2.23899 -1.72668,-4.95975 -3.09781,-6.24908 -1.33565,-1.25596 -2.42847,-2.85801 -2.42847,-3.56012 0,-2.88965 2.96679,-13.00958 4.4999,-15.11944 2.45738,0.63062 1.06335,0.0751 5.57688,2.13079 6.01598,2.74002 9.55216,5.20709 10.47578,10.135 0.93543,4.99096 4.32211,7.46195 9.19157,6.84639 3.62468,-0.45822 5.41274,0.20038 9.15959,2.10083 2.70462,1.37182 5.66597,2.66898 7.7452,3.84243 -1.61454,3.47404 -13.02159,27.81923 -17.91859,34.58567 -4.81568,8.44676 -10.10135,20.25022 -20.07028,28.10495 -5.31365,5.22544 -12.29373,10.88723 -12.80006,10.88723 -0.50634,0 -6.09978,-6.6001 -9.37979,-9.92222 z"
       style="fill:#d6cdbc;fill-opacity:1;stroke:#ffffff;stroke-width:2.99885345;stroke-linecap:round;stroke-linejoin:round;stroke-miterlimit:4;stroke-opacity:1;stroke-dasharray:none"
       sodipodi:nodetypes="ccccccsscsssscccsc"
       inkscape:connector-curvature="0" />
    <path
       id="path4500"
       d="m 541.11861,279.61528 c -3.7154,-1.93461 -5.70002,-2.23027 -8.32562,-1.73725 -3.96274,0.74411 -9.11892,-1.61295 -9.15437,-4.40331 -0.0121,-0.9499 -0.8528,-3.55811 -1.86829,-5.79601 -1.62574,-3.58275 -9.52331,-7.31717 -14.65283,-9.00495 -2.37274,-2.49663 -3.66225,-4.17532 -3.66225,-7.87843 0,-4.82113 -5.1673,-13.57401 -10.48721,-17.76427 -2.74981,-2.16588 -5.17734,-4.45148 -5.39458,-5.07911 -0.21721,-0.62765 -1.6484,-2.74307 -3.18042,-4.70094 -3.20586,-4.09703 -4.58408,-8.41136 -3.00006,-9.39125 0.59407,-0.3675 1.08011,-3.50617 1.08011,-6.97483 0,-8.47346 -1.94799,-10.36 -10.98536,-13.50676 -5.11271,-1.78023 -5.17374,-1.58377 -7.34894,-2.72952 0.15537,-1.49528 1.19161,-4.6851 2.04816,-7.00646 0.59055,-1.60049 1.94944,-4.44903 2.25607,-6.71538 0.54744,-4.0461 0.62966,-4.12062 4.54615,-4.12062 3.61168,0 4.01856,-0.26075 4.30563,-2.75937 0.20938,-1.82238 1.26403,-3.24953 3.10589,-4.20288 1.53388,-0.79393 4.63466,-4.39014 6.89063,-7.99156 l 4.10179,-6.54802 5.5315,0 c 5.41304,0 5.53149,0.0609 5.53149,2.84524 0,3.19017 1.36499,4.59861 8.29543,8.55942 2.6623,1.52154 5.22219,3.85808 5.75041,5.24868 0.92299,2.42993 1.15742,2.4867 7.691,1.86202 3.70643,-0.35438 9.1053,-1.13793 11.99748,-1.74121 4.10178,-0.8556 5.79311,-0.81052 7.68878,0.20497 1.40947,0.75502 3.88216,1.06603 5.88677,0.74042 2.37586,-0.3859 4.73574,0.0721 7.54826,1.46491 3.936,1.94921 4.09177,2.20823 4.09177,6.80356 0,4.28443 0.36074,5.05263 3.49704,7.44702 2.50872,1.91529 3.49702,3.45047 3.49702,5.43207 0,2.51749 4.36412,8.13689 6.31922,8.13689 0.39301,0 2.58572,-1.18232 4.8727,-2.62738 4.6193,-2.91874 4.48535,-2.95088 12.50703,3.00027 2.3237,1.72392 7.47614,6.47566 9.20731,8.25649 -1.69715,2.66091 38.96001,-31.47083 44.62692,-23.2335 7.58627,11.02728 -13.16783,66.42264 -15.94484,69.25837 -4.36435,4.45664 -73.54783,25.45361 -81.0769,31.01456 -1.97658,-0.88095 -5.10986,-2.96482 -7.79289,-4.36188 z"
       style="fill:#d6cdbc;fill-opacity:1;stroke:#ffffff;stroke-width:2.99885345;stroke-linecap:round;stroke-linejoin:round;stroke-miterlimit:4;stroke-opacity:1;stroke-dasharray:none"
       sodipodi:nodetypes="cssscssssssscssssscccsssssssssssssscsscc"
       inkscape:connector-curvature="0" />
    <path
       id="path4498"
       d="m 466.73302,390.31934 c -1.09906,-0.86801 -9.21372,-6.30742 -12.23615,-7.63778 -3.02244,-1.33035 -7.17887,-2.91961 -9.10224,-3.93489 -1.92334,-1.01527 -5.91498,-2.74356 -8.93741,-3.70626 -3.02243,-0.96268 -7.4532,-3.02923 -9.93658,-4.27763 -4.31193,-2.16762 -13.22173,-4.99608 -20.18878,-5.92364 -2.58608,-0.3443 -5.92402,-1.5835 -7.67277,-2.10942 -1.79876,-0.54098 -5.58792,-1.95309 -8.78659,-2.52712 -3.19866,-0.57402 -7.97971,-1.04214 -9.532,-1.74282 -2.07079,-0.93472 -5.03296,-0.48506 -10.27653,0.30198 -7.04277,1.05708 -8.78229,0.57523 -16.48135,-1.42246 -6.96237,-1.6773 -12.8278,-1.9836 -19.75055,-1.83559 -0.22787,-8.64021 1.08167,-9.69891 2.65985,-14.17413 1.56637,-4.44174 2.41892,-8.69755 2.83878,-9.08359 0.41985,-0.38604 3.57349,-3.01898 7.00808,-5.85099 4.35453,-3.59054 6.24469,-5.84438 6.24469,-7.44617 0,-3.21654 0.57692,-3.51287 4.93221,-2.53338 2.82023,0.63426 4.62782,0.46627 6.83345,-0.63506 1.99929,-0.99831 3.7853,-1.22047 5.35832,-0.66652 2.67508,0.94206 6.98961,0.82109 11.25285,-0.3155 1.78302,-0.47536 3.60424,-0.33157 4.7324,0.37364 2.54198,1.58897 4.88474,1.43262 6.9806,-0.46588 1.64427,-1.48942 2.13831,-1.43859 6.48421,0.6672 3.31425,1.60588 7.53547,2.49882 14.28522,3.0218 11.91785,0.92343 17.57867,2.16531 20.04227,4.39691 1.10484,1.00081 4.5249,2.03975 8.10583,2.46237 3.76597,0.44446 6.64236,1.34409 7.33679,2.29468 1.78949,2.44954 7.52004,4.42774 15.10045,5.2127 8.3657,0.86628 15.58045,5.07192 24.90823,14.51952 3.28001,3.32212 8.93627,8.81782 10.43139,9.58759 -8.92017,9.24575 -10.2215,9.97519 -20.67355,21.95017 -8.04455,8.8751 -9.20547,7.59765 -11.96112,11.50027 z"
       style="fill:#d6cdbc;fill-opacity:1;stroke:#ffffff;stroke-width:2.99885345;stroke-linecap:round;stroke-linejoin:round;stroke-miterlimit:4;stroke-opacity:1;stroke-dasharray:none"
       sodipodi:nodetypes="csssssssssccsssssssssssssssssccc"
       inkscape:connector-curvature="0" />
    <path
       id="path4496"
       d="m 222.69385,723.35304 c 0,-3.48617 0.0892,-3.44918 -3.6326,-1.50629 -3.58573,1.87184 -6.3589,1.92792 -6.3589,0.12861 0,-0.75772 -0.65818,-1.92443 -1.46264,-2.59268 -1.35657,-1.12692 -12.48904,-3.1842 -16.99318,-3.14035 -1.08339,0.0105 -2.65706,-0.59589 -3.49703,-1.34764 -0.83994,-0.75175 -5.12414,-2.40311 -9.52041,-3.6697 -4.86427,-1.40141 -9.714,-3.6108 -12.38917,-5.64412 l -4.39597,-3.34124 -12.58959,0.30584 -12.5896,0.30582 -0.30178,-2.60112 c -0.22029,-1.89875 0.4048,-3.06451 2.31495,-4.31727 2.11044,-1.3841 2.3868,-1.99344 1.42838,-3.14937 -0.65359,-0.78827 -1.98206,-1.43322 -2.95213,-1.43322 -0.9701,0 -4.78042,-1.41298 -8.46743,-3.13994 -6.45948,-3.02558 -6.68172,-3.24968 -6.10167,-6.15259 0.45772,-2.29079 0.14082,-3.33594 -1.32265,-4.36193 -1.05852,-0.74211 -2.21524,-2.67383 -2.57045,-4.29269 -0.80084,-3.64957 -5.95356,-8.35997 -14.72057,-13.45693 -6.35906,-3.69704 -6.92108,-4.33181 -10.712133,-12.09887 -4.703652,-9.63673 -6.273693,-18.49116 -3.771452,-21.26949 0.858551,-0.95327 4.717173,-8.25877 8.574725,-16.23445 6.05814,-12.52553 8.11061,-15.70961 15.06455,-23.37045 4.42795,-4.87806 8.05081,-9.21779 8.05081,-9.64383 0,-1.18298 2.62595,-1.98227 13.17273,-4.00952 5.32164,-1.02289 11.03195,-2.5618 12.68957,-3.41979 4.06042,-2.10169 4.89583,0.86962 8.71607,0.1629 3.24016,-0.59942 4.05855,-1.45554 4.05855,-2.7648 0,-0.33314 2.20338,2.49377 0.82954,0.85953 -3.15244,-3.74996 -3.14632,-5.20134 0.028,-6.64902 3.10551,-1.41629 4.097,-3.70723 2.45928,-5.68239 -1.81352,-2.1872 -4.54203,-1.81329 -6.29362,0.86246 -1.23581,1.88786 -2.74075,2.47566 -7.65459,2.98974 -3.36399,0.35194 -7.0027,1.11469 -8.086,1.69499 -1.45208,0.77786 -2.47341,0.70193 -3.88673,-0.28892 -1.43859,-1.00856 -5.61143,-1.28171 -16.71838,-1.09435 -17.17128,0.28966 -22.98633,-0.92587 -29.563454,-6.17962 -2.321941,-1.85475 -6.102573,-4.63233 -8.401424,-6.17239 -3.083532,-2.06574 -4.573693,-3.97365 -5.681907,-7.2747 l -1.502182,-4.47461 3.500696,-4.27614 c 1.925402,-2.35189 4.166453,-4.27615 4.980133,-4.27615 1.307471,0 11.375767,-9.17943 11.375767,-10.37148 0,-1.65392 -1.433391,-3.62972 -2.633272,-3.62972 -0.78118,0 -4.092382,1.35012 -7.358244,3.00025 -7.275874,3.67629 -9.331024,3.73042 -14.170932,0.37323 -3.29363,-2.28462 -4.147155,-2.47891 -6.548184,-1.49062 -3.532608,1.45406 -9.115393,-0.0455 -11.385795,-3.05823 -1.238807,-1.64384 -3.431903,-2.44379 -8.996025,-3.28134 l -7.357872,-1.10756 -0.08071,-6.9687 c -0.115722,-9.99205 -1.623721,-13.64853 -7.469073,-18.11041 -2.71678,-2.07379 -4.939603,-4.09531 -4.939603,-4.49229 0,-0.39697 1.676106,-2.10464 3.724676,-3.79484 2.959834,-2.44203 4.652496,-3.06821 8.242995,-3.04942 4.096583,0.0214 4.792672,0.39482 7.457657,4.00035 1.616626,2.18718 3.68263,3.97669 4.591109,3.97669 0.908497,0 4.972783,-2.92525 9.031784,-6.50056 4.058991,-3.5753 7.725615,-6.50055 8.148055,-6.50055 0.422421,0 1.696589,0.9294 2.831454,2.06533 2.328471,2.33065 1.46992,2.41657 20.917077,-2.09347 24.693834,-5.72681 44.856564,-9.97271 47.357984,-9.97271 1.82082,0 2.99071,0.85644 4.09828,3.00025 2.2021,4.26238 7.56663,4.26238 11.30331,0 1.84289,-2.10215 3.54229,-3.00025 5.6771,-3.00025 1.92642,0 4.41485,-1.12864 6.76683,-3.06915 2.55052,-2.10432 4.33883,-2.87254 5.68866,-2.44373 3.21303,1.02074 8.69352,-1.06298 12.48199,-4.74572 3.47314,-3.37622 3.5315,-3.56386 2.92254,-9.39561 -0.52538,-5.03126 -0.26458,-6.63794 1.68809,-10.39965 1.73448,-3.34138 2.25064,-5.81854 2.0731,-9.94954 -0.13002,-3.02526 0.39594,-7.30063 1.16881,-9.50081 1.04041,-2.96187 1.13106,-4.6104 0.3492,-6.35035 -0.85699,-1.90709 -0.72814,-2.53366 0.68367,-3.3245 1.11055,-0.62208 1.52566,-1.64957 1.14781,-2.84116 -0.45573,-1.43722 0.62298,-2.68557 4.68884,-5.42624 4.57821,-3.08603 6.08005,-3.56283 11.28897,-3.58403 8.82887,-0.0359 13.97797,-1.54565 20.58237,-6.03482 5.14758,-3.49892 5.97661,-4.51586 6.53603,-8.01757 0.52447,-3.28289 1.2136,-4.24999 3.79894,-5.33122 1.73703,-0.72646 3.94313,-2.51984 4.90243,-3.9853 1.57593,-2.4074 1.93685,-2.52939 3.74117,-1.26441 1.74939,1.22647 2.66445,1.12852 7.38033,-0.78995 6.04957,-2.46103 8.52495,-4.21482 8.52495,-6.0399 0,-0.68209 1.28255,-2.85553 2.8501,-4.82989 2.15827,-2.71838 3.0077,-5.09898 3.49936,-9.80734 0.35709,-3.41968 0.89027,-6.45885 1.18486,-6.7537 0.29456,-0.29486 3.47191,-0.72325 7.06075,-0.95198 5.96497,-0.38018 6.75957,-0.19108 9.25569,2.20258 1.81625,1.74171 4.64943,2.97351 8.46137,3.67885 7.38668,1.36677 13.06,3.38949 16.61646,5.92428 1.55959,1.11157 6.36327,2.8635 10.67486,3.89321 l 7.83923,1.87219 -0.0254,2.73553 -0.29304,3.62849 6.12145,0 c 3.36681,0 9.79334,0.94727 14.28116,2.10504 7.39598,1.90802 8.92184,1.99333 16.30277,0.91138 5.91476,-0.86702 8.69927,-0.89572 10.1756,-0.10488 1.1179,0.59884 3.52335,1.10348 5.34547,1.12145 1.82211,0.0179 5.78582,0.95636 8.80824,2.08535 3.02243,1.12901 8.77906,2.67975 12.79251,3.44612 8.34908,1.59426 15.09925,3.74877 20.16372,6.43584 1.93203,1.02508 6.4353,2.83308 10.00727,4.01777 3.57197,1.18471 6.9452,2.52842 7.49613,2.98601 0.55089,0.45761 3.47341,1.80493 6.49447,2.99406 6.41986,2.52695 12.19239,6.40268 16.29604,9.88187 -1.4424,3.45411 -9.93972,15.94857 -20.63542,32.42827 -5.48442,9.02068 -22.38004,31.81186 -28.94927,43.85238 -3.12218,-1.67249 -20.43916,-6.31539 -32.42586,-7.76022 -6.04487,-0.72863 -13.85685,-1.83284 -17.35998,-2.45382 -3.50314,-0.62097 -6.59004,-0.90813 -6.8598,-0.63811 -0.26974,0.27 0.0111,1.93116 0.62422,3.69146 0.61305,1.7603 1.11467,5.147 1.11467,7.52601 0,3.77838 -0.37285,4.51843 -2.94784,5.85127 -1.71749,0.88898 -5.54751,1.52581 -9.17647,1.52581 -4.3614,0 -7.57994,0.65476 -10.73614,2.18408 -2.88859,1.39965 -6.68009,2.24626 -10.55673,2.35725 -6.57808,0.18833 -15.44653,2.28904 -17.03994,4.03634 -1.17938,1.29328 -11.32579,5.71613 -20.4826,8.92843 -7.80974,2.73974 -40.5295,16.9811 -43.51914,18.94182 -2.76718,1.81482 -2.40558,4.49884 2.76935,20.55693 l 4.02866,12.50106 -0.62695,21.00179 c -0.60497,20.26571 -0.70503,21.05436 -2.85511,22.50192 -4.86993,3.27872 -19.57178,16.07729 -20.37423,17.73662 -0.46946,0.97077 -0.88064,27.54789 -0.91371,59.06028 l -0.0602,57.29523 -3.21961,1.95981 c -4.34636,2.64563 -5.16965,2.47993 -5.16965,-1.04045 z"
       style="fill:#d6cdbc;fill-opacity:1;stroke:#ffffff;stroke-width:2.99885345;stroke-linecap:round;stroke-linejoin:round;stroke-miterlimit:4;stroke-opacity:1;stroke-dasharray:none"
       sodipodi:nodetypes="csssssscccccssssssssssssssssssssssssssscccssssssscccsssssssssssssssssssssssssssssssssssssssscccccsssssssssscccsssssssssssscccsscccc"
       inkscape:connector-curvature="0" />
    <path
       style="fill:none;stroke:#ffffff;stroke-width:2;stroke-linecap:round;stroke-linejoin:miter;stroke-miterlimit:4;stroke-opacity:1;stroke-dasharray:4, 4;stroke-dashoffset:0"
       d="m 597.61813,204.22305 c 13.37898,9.56632 16.98369,-25.37157 38.81988,-16.08252"
       id="path3209"
       sodipodi:nodetypes="cs"
       inkscape:connector-curvature="0" />
    <path
       style="fill:none;stroke:#ffffff;stroke-width:2;stroke-linecap:round;stroke-linejoin:miter;stroke-miterlimit:4;stroke-opacity:1;stroke-dasharray:4, 4;stroke-dashoffset:0"
       d="m 552.92635,273.89762 c 25.36271,-6.16347 41.98586,-17.60688 53.27909,-18.25252"
       id="path3211"
       sodipodi:nodetypes="cs"
       inkscape:connector-curvature="0" />
  </g>
  <g
     inkscape:groupmode="layer"
     id="layer2"
     inkscape:label="River shore borders"
     style="display:inline">
    <path
       style="fill:none;stroke:#ffffff;stroke-width:6;stroke-linecap:round;stroke-linejoin:round;stroke-miterlimit:4;stroke-opacity:1;stroke-dasharray:none;display:inline"
       d="m 605.49327,257.1946 c 3.10174,-0.76765 14.32119,-3.24348 15.82572,-3.58473 3.70836,-0.84112 5.58258,-4.80334 13.21479,-27.93689 9.27245,-28.10518 9.78601,-38.65719 1.88142,-38.65719 m -36.82067,16.26898 c 1.68292,-2.05045 6.32503,-7.85857 7.94348,-9.85683 1.61844,-1.99826 4.59591,-4.67784 6.6166,-5.95464 4.21498,-2.66329 11.31603,-14.62547 12.47341,-21.01225 1.11857,-6.17267 2.97291,-8.93563 8.28849,-12.34983 4.91373,-3.15607 12.31961,-12.86819 15.03626,-19.71862 0.68028,-1.71544 2.70592,-4.54416 4.50142,-6.28606 l 3.26453,-3.16706 4.77088,2.04695 c 4.62722,1.98532 4.75162,2.14965 4.13155,5.458 -0.86516,4.61598 0.64676,5.18751 4.23139,1.59952 l 2.97898,-2.98176 9.81791,3.99851 c 5.39985,2.19919 10.12066,4.32536 10.49067,4.72482 M 445.93722,454.4708 c -0.34848,1.29498 -4.59742,9.4161 -6.05304,12.28556 -0.90969,1.79327 -1.71857,3.69622 -2.19931,5.11078 m 23.74997,-43.39335 c -0.85733,0.71218 -4.27989,5.75935 -5.40282,7.99633 -1.12293,2.23699 -4.11221,7.48059 -4.94832,8.43285 m 39.73778,21.46606 c -1.88974,-7.00559 -0.25688,-16.64289 4.22697,-20.70451 2.22926,-2.01934 3.24075,-4.81398 5.11344,-14.12792 0.66358,-3.30028 2.01095,-8.02568 2.99419,-10.50089 3.91138,-9.84659 6.3447,-18.76899 6.54582,-24.00205 0.20683,-5.38154 1.23015,-8.76735 3.6929,-12.21842 1.0107,-1.41631 0.74827,-2.69182 -1.49635,-7.27277 -1.49709,-3.05539 -2.72199,-6.22033 -2.72199,-7.03321 0,-0.81289 -0.18148,-1.47797 -0.40327,-1.47797 -1.49704,0 -8.5232,7.59635 -12.16128,13.14817 -2.39588,3.6562 -5.77214,7.70654 -7.50282,9.00077 -1.73066,1.29423 -4.88896,4.15329 -7.01843,6.35348 -2.12948,2.20019 -6.11639,6.25053 -8.8598,9.00077 -3.50805,3.51674 -6.59265,10.02764 -7.62842,16.50093 m 153.04451,136.11361 c 1.2408,1.89547 4.34032,0.89852 6.78709,0.89852 1.81911,0 3.62863,0.32146 4.02116,0.71435 0.68307,0.68371 11.87426,3.9689 14.24994,4.1831 0.62813,0.0566 1.41496,-0.60889 1.74851,-1.47895 1.46112,-3.81115 0.57654,-7.57309 -2.40614,-10.23285 -1.65694,-1.47756 -4.54926,-4.14908 -6.42739,-5.93673 -1.87812,-1.78765 -4.4566,-3.24861 -5.72995,-3.24655 m -30.55649,49.60078 c 1.519,-2.27705 0.68988,-9.56408 -1.66777,-14.65755 -1.95801,-4.23012 -2.32097,-6.24877 -1.86098,-10.35017 0.77949,-6.95015 2.01592,-8.23224 9.83281,-10.196 1.84384,-0.4632 5.08802,2.55626 5.08802,3.76496 M 34.879186,492.02669 c 3.557206,0.0192 8.330883,2.46965 9.662492,4.9601 0.565819,1.05823 1.028766,4.11782 1.028766,6.79909 0,7.82462 1.208603,8.69794 12.736297,9.20305 0.685327,0.03 3.045331,1.68166 5.244433,3.67027 3.834191,3.46721 4.215996,3.58846 9.297918,2.95293 4.877914,-0.61003 5.60038,-0.42345 9.081138,2.3453 2.079881,1.65442 4.646322,3.28276 5.703183,3.61851 1.983101,0.63 4.897123,5.27415 4.897123,7.80466 0,0.78913 -1.124051,2.17196 -2.497882,3.07297 -2.220271,1.45614 -2.498601,2.3303 -2.504461,7.86568 -0.0048,4.53204 -0.54704,7.04431 -1.991711,9.22774 -1.091831,1.65014 -1.988101,4.07605 -1.991721,5.39092 -0.0085,3.08297 3.985892,11.11048 5.528433,11.11048 0.6513,0 4.455202,-1.35011 8.453094,-3.00025 7.693262,-3.17543 12.074132,-3.68156 16.670732,-1.92604 1.559,0.59541 9.27027,1.05463 17.3004,1.03026 7.96822,-0.0242 16.11563,0.332 18.10533,0.79148 2.5164,0.58111 4.7975,0.39492 7.49362,-0.61165 7.47088,-2.7892 7.90485,-2.74226 10.16985,1.10021 2.21837,3.76339 1.49914,5.38212 -1.6434,3.69871 -1.18103,-0.63265 -2.96173,-0.67472 -4.76663,-0.11259 -1.5847,0.49355 -6.25341,1.85991 -10.3749,3.03638 -4.1215,1.17644 -8.87442,2.55641 -10.56203,3.06658 -1.68762,0.51017 -4.48618,0.92759 -6.21903,0.92759 -2.47838,0 -3.47591,0.62958 -4.67503,2.9506 -0.83841,1.62282 -1.52439,3.7849 -1.52439,4.80462 0,2.23785 -5.11345,10.60092 -9.0166,14.74669 -1.55357,1.65015 -6.06022,9.94181 -10.0148,18.42593 -6.79262,14.57286 -7.15961,15.72161 -6.63816,20.77875 0.95631,9.27446 9.02063,21.83293 16.27791,25.34941 6.38126,3.092 12.84715,10.18835 15.4467,16.95285 1.16258,3.02526 2.4968,6.47472 2.96492,7.66546 0.64432,1.63892 2.26172,2.45137 6.65645,3.34363 7.22829,1.46759 10.30151,2.65217 10.30151,3.97075 0,1.23236 -3.25258,4.60695 -5.00345,5.19111 -2.06201,0.68799 -0.14797,4.69923 3.02634,6.34228 2.08046,1.07685 6.20691,1.48916 14.90392,1.48916 l 12.02688,0 2.49583,3.95733 c 3.03158,4.80681 5.21338,6.05682 12.44349,7.12913 13.39342,1.98644 22.86353,3.86191 26.92593,5.33245 2.40461,0.87043 5.58022,1.58261 7.05691,1.58261 1.67935,0 3.76113,1.12441 5.55855,3.00225 M 417.34116,465.47693 c 0.98326,-2.31807 2.41194,-5.52519 4.47541,-10.1044 1.28048,-2.84161 3.15742,-5.43 4.17099,-5.752 1.68362,-0.53485 7.25343,-10.24565 7.25343,-12.64612 0,-1.22573 3.23218,-5.92547 7.99321,-11.62251 8.12753,-9.72541 10.01581,-12.7368 20.37401,-32.49221 2.82632,-5.39044 5.32957,-8.92261 6.61224,-9.33009 1.13524,-0.36064 3.16469,-2.40085 4.50989,-4.53377 1.3452,-2.13292 3.46402,-4.40935 4.70849,-5.05873 1.24447,-0.64939 4.57653,-3.25646 7.40458,-5.7935 2.82805,-2.53703 5.86298,-5.19307 6.74428,-5.90232 0.88129,-0.70925 1.60236,-2.1066 1.60236,-3.10521 0,-0.99861 2.5853,-4.1167 5.74511,-6.92907 8.22362,-7.31938 11.24273,-10.40651 15.51091,-15.86044 2.07397,-2.65015 5.04838,-6.3936 6.6098,-8.31876 2.58413,-3.18617 3.89323,-5.34011 8.81336,-14.50124 0.88624,-1.65015 1.98552,-3.67532 2.44286,-4.50038 3.99728,-7.21145 8.83719,-17.19811 8.83719,-18.23468 0,-2.10393 7.12111,-12.67353 8.92461,-13.24647 0.91994,-0.29226 2.1034,-1.46148 5.70168,-2.81614 m 125.88259,396.79553 c -12.0269,-8.36966 -13.71468,-9.75714 -15.07741,-12.39485 -2.98146,-5.77092 -11.88879,-11.72682 -13.5396,-9.05327 -1.1048,1.78928 -2.72073,0.42149 -5.12661,-4.33932 -1.80208,-3.566 -7.36173,-10.72082 -11.02118,-14.18335 -0.58132,-0.55005 -2.50909,-2.42124 -4.28393,-4.15818 -1.77483,-1.73695 -5.98112,-4.54968 -9.34733,-6.25053 -5.74459,-2.90258 -6.80093,-3.09244 -17.20519,-3.09244 M 711.00494,143.00817 c -0.8243,-0.48747 -9.14223,-3.86863 -18.48429,-7.5137 -9.34207,-3.64506 -18.12165,-7.4343 -19.51016,-8.42054 -1.38854,-0.98623 -5.3227,-2.81434 -8.74258,-4.06245 -6.98376,-2.5488 -7.00895,-2.61158 -4.63042,-11.54202 1.32598,-4.97852 1.40484,-7.27881 0.47866,-13.961291 -0.73948,-5.3354 -0.80632,-10.832536 -0.20062,-16.501398 0.62289,-5.829821 2.95026,-16.305086 5.97489,-27.648406 3.02463,-11.343321 6.74653,-23.554698 10.15847,-32.856744 3.31972,-9.050611 4.94004,-15.9441071 4.31238,-18.3465511 -0.56208,-2.15136295 -0.52913,-2.15519324714 18.53733,-2.15519324714 l 19.1004,0 0,72.00612734714 0,72.006136 -2.74767,-0.0588 c -1.51121,-0.0323 -3.42209,-0.45766 -4.24639,-0.94515 z m -81.78444,391.22029 -1.59736,-3.09182 c -0.87854,-1.70051 -2.22296,-3.09183 -2.98758,-3.09183 -0.76463,0 -3.33839,-0.83781 -5.71945,-1.8618 -4.20808,-1.80971 -8.54779,-7.03809 -11.82855,-14.25073 -1.88942,-4.15385 -6.83365,-5.88934 -16.77809,-5.88934 -6.46532,0 -10.14134,-0.54476 -14.20402,-2.10495 -3.01466,-1.15774 -7.23865,-2.75527 -9.38662,-3.55008 -2.14797,-0.79481 -4.84569,-1.96596 -5.99491,-2.60257 -4.92742,-2.72955 -29.97895,-4.58712 -35.8241,-2.65636 -3.31159,1.09388 -4.62252,0.96152 -10.99066,-1.10964 -9.40786,-3.48143 -19.5813,-8.02663 -21.00933,-11.68074"
       id="path4549"
       sodipodi:nodetypes="cssscssssscccscccscsccsscssssssssssssccssscsscccssssssssccsssccsssssssssssssssssssssssssssssssssssscccsssccssssssssssssssssssscssssssscssssssssscccccccc"
       inkscape:connector-curvature="0" />
    <path
       style="fill:none;stroke:#ffffff;stroke-width:6;stroke-linecap:round;stroke-linejoin:miter;stroke-opacity:1"
       d="m 455.75313,597.64774 0.46833,0.58978 c 1.36748,1.72213 2.66304,3.59221 4.06925,5.17698 2.95836,3.33402 8.10151,6.09982 9.90194,8.60582 0.89238,1.24209 2.19972,2.1779 4.14259,2.76104 5.35544,1.6074 8.30648,5.74795 12.68072,9.61847 3.95233,3.49718 6.51692,8.48745 12.88514,11.00618 2.8345,1.12109 5.3003,2.46176 8.28278,2.64817 3.51809,0.21988 10.1349,3.41693 14.98068,4.88896 6.29666,1.91277 12.21742,3.51645 16.98557,6.66595 2.36959,1.56518 5.80002,1.30187 8.50787,0.44611 14.29336,-4.51711 23.27007,-12.21273 28.58161,-17.38678 2.00794,-1.95596 2.5322,-3.71921 3.99673,-4.6151 3.24279,-1.98371 7.17103,-6.4041 11.36002,-8.39809 4.28359,-2.03902 8.82192,-1.63038 11.53796,-1.68856"
       id="path3010"
       inkscape:connector-curvature="0"
       sodipodi:nodetypes="csssssssssssssc" />
  </g>
  <g
     inkscape:groupmode="layer"
     id="layer1"
     inkscape:label="Water bodies"
     style="display:inline">
    <path
       sodipodi:nodetypes="cssssssssssssssssssssssssssssssssssssssssssssssssssssssssssssssssssscccsssssssssssccssssssssssssssssssssssssssssssscccssscccssssssssssccsssssssssssssssssssssssssssssssssssssssscccsssssssssssssssssssssssssssssssssssssssssssssssssssssssssssssssssssssssssssssssssssssssscccscccsssssssssssssssssssssssssssssssssssssssssssscccssssssssssssssssssssssscccssssssssssssssssssssssssssssssssssssssssccsssssssssccssccssssssssscccssssssssssssssssssssssssssssssssssccssccssssssssccssssssssccsssssssssssssssssssccssssssccsssssscccccsssssssccsssssssscccccc"
       id="path3192"
       d="m 607.93812,898.39744 c -4.25957,-3.89724 -9.59765,-9.47721 -12.1819,-12.73389 -2.5707,-3.23968 -2.78469,-4.08955 -2.22508,-8.83695 1.92031,-16.29099 1.9973,-15.1994 -1.34031,-19.00422 -2.29705,-2.61863 -3.08601,-4.49938 -3.09684,-7.38212 -0.0164,-4.37518 -1.86677,-10.23088 -5.50117,-17.40979 -1.99525,-3.94113 -2.47751,-6.38285 -2.47751,-12.54416 0,-7.44584 0.0602,-7.63446 2.2481,-7.0475 1.23645,0.33163 3.25973,0.60915 4.49618,0.61665 1.49367,0.009 2.24809,0.61775 2.24809,1.81385 0,0.99008 0.53954,2.3402 1.19898,3.00025 1.47722,1.47864 4.79592,1.58265 4.79592,0.15032 0,-0.57735 -0.72104,-2.44541 -1.60233,-4.15115 -1.02596,-1.98588 -1.40629,-4.39618 -1.05734,-6.70097 0.90671,-5.98861 -0.75826,-11.90742 -4.41061,-15.67913 -3.97905,-4.10926 -6.23119,-4.51609 -5.34074,-0.9649 0.64334,2.56563 0.83868,2.45272 -7.03557,4.06615 -3.90319,0.79987 -5.53218,-2.20898 -5.53218,-10.21806 0,-5.41176 -0.53401,-8.43313 -1.9983,-11.30607 -1.09907,-2.15638 -1.9983,-5.00232 -1.9983,-6.32434 0,-2.12747 0.44796,-2.4037 3.8983,-2.4037 3.15007,0 4.10894,0.46274 4.99576,2.4109 0.60359,1.32602 1.10899,2.95225 1.1231,3.61392 0.0141,0.66165 2.26221,3.39828 4.99576,6.08121 4.95478,4.86311 4.9701,4.86951 4.9701,2.07118 0,-1.54383 -0.40897,-4.18906 -0.90883,-5.8782 -0.49985,-1.68924 -1.43065,-4.87142 -2.06845,-7.0716 -2.45774,-8.47842 -3.20518,-9.56241 -8.40777,-12.19374 -2.80552,-1.41902 -6.09111,-3.64381 -7.30133,-4.94393 -1.21021,-1.30021 -3.26752,-2.364 -4.5718,-2.364 -4.73115,0 -8.71465,-6.50886 -8.71465,-14.2393 0,-4.76147 0.37339,-5.73228 3.29481,-8.56646 1.81213,-1.75804 3.723,-3.18002 4.24638,-3.15994 1.21203,0.0465 6.44692,8.26524 6.44692,10.12159 0,0.76883 -0.60621,2.28558 -1.34712,3.37054 -1.88841,2.76534 -2.81176,8.25481 -1.52262,9.05227 0.58377,0.36113 2.39495,-0.33023 4.02483,-1.53639 2.7219,-2.01427 3.15188,-2.06939 5.27589,-0.67639 1.27186,0.83414 3.38012,2.90964 4.68502,4.61218 1.3049,1.70266 3.72139,4.72912 5.36999,6.72549 2.42906,2.94165 3.14307,4.97333 3.76538,10.71411 2.43159,22.43202 4.21847,29.09408 9.27684,34.58664 5.0281,5.45967 6.6825,9.37671 5.27054,12.47847 -1.49386,3.28178 -3.31335,2.70373 -3.3663,-1.06949 -0.0503,-3.58881 -1.36376,-6.58486 -2.56177,-5.8438 -0.49195,0.30432 -0.89446,2.28659 -0.89446,4.40488 0,4.61768 4.42915,12.03181 7.18771,12.03181 1.11567,0 2.49179,1.37443 3.5046,3.50031 0.91719,1.92516 1.92449,3.50029 2.23844,3.50029 0.67985,0 3.05567,-7.33822 3.05567,-9.438 0,-2.51711 2.25474,-6.56336 3.6574,-6.56336 0.73609,0 1.33835,0.45004 1.33835,1.00008 0,1.70476 11.40754,12.51707 14.60481,13.84258 1.96659,0.81537 3.75968,2.76144 5.1127,5.54898 1.33987,2.76044 3.14878,4.7347 5.06671,5.52987 2.53658,1.05169 2.98662,1.78615 3.00791,4.90912 0.0138,2.01977 0.33602,5.37005 0.71609,7.44503 0.91886,5.01672 -0.90674,9.16208 -5.13449,11.65889 -1.86489,1.10129 -3.39071,2.69263 -3.39071,3.53631 0,5.57597 -7.16856,-5.33956 -7.43911,-11.32757 -0.12899,-2.85474 -0.76537,-4.67899 -1.84289,-5.28255 -2.36697,-1.32582 -1.0871,-6.55615 2.45156,-10.01855 1.55861,-1.52503 2.83383,-3.22757 2.83383,-3.78353 0,-1.88366 -4.69739,-4.10424 -8.10189,-3.82992 -2.85154,0.22972 -3.43771,-0.0829 -3.70701,-1.97727 -0.64329,-4.52518 -2.7762,-2.3496 -5.52456,5.63508 -1.29866,3.77292 -1.27035,4.6846 0.27693,8.92186 2.92654,8.01408 0.6285,15.15229 -4.89731,15.2121 -0.83941,0.009 -3.50172,2.06377 -5.91623,4.56609 l -4.39005,4.54948 4.31373,4.39948 c 3.37814,3.44528 5.28419,4.54518 8.78815,5.07113 4.94683,0.74246 12.37225,5.26134 14.83993,9.03097 1.97336,3.01455 2.39691,13.46534 0.5715,14.1014 -0.68692,0.23932 -1.24894,-0.28743 -1.24894,-1.1706 0,-0.88328 -1.74683,-3.5085 -3.88184,-5.8339 -2.13501,-2.3254 -4.05105,-5.12284 -4.25786,-6.21663 -0.43929,-2.32329 -3.5551,-3.22718 -5.20517,-1.51003 -0.86521,0.90028 -0.59672,1.56003 1.10527,2.71593 1.23645,0.83967 2.24809,2.29649 2.24809,3.23738 0,0.94088 1.65629,2.79864 3.68062,4.12835 6.26657,4.11645 5.53693,4.92802 -4.34672,4.83461 -6.38994,-0.0603 -9.28205,-0.50074 -10.47883,-1.59563 z M 475.22092,838.0138 c -1.93077,-1.07749 -5.3844,-1.94277 -7.75379,-1.94277 -2.9694,0 -6.74059,-1.22 -12.36572,-4.00034 -7.13312,-3.5257 -8.93133,-4.00034 -15.15574,-4.00034 -3.88432,0 -8.53927,-0.53454 -10.34435,-1.18791 -2.82085,-1.02098 -3.56178,-0.93437 -5.27349,0.61607 -1.66931,1.51212 -2.76569,1.66243 -6.77682,0.92897 -4.21293,-0.77046 -4.99736,-1.32582 -6.55812,-4.6436 -1.35206,-2.87414 -1.51981,-4.24166 -0.70681,-5.76219 1.51854,-2.84014 0.41348,-3.95253 -3.92628,-3.95253 -3.72636,0 -7.08995,-2.2801 -7.08995,-4.80611 0,-1.58963 -4.40455,-4.32627 -8.22043,-5.10744 -2.3703,-0.48524 -3.8208,-1.75575 -5.72502,-5.01472 -3.53326,-6.04701 -6.39707,-7.84027 -14.78454,-9.25769 -6.28706,-1.06239 -8.38635,-0.98809 -15.83038,0.56054 -10.24927,2.13229 -16.78259,1.54704 -23.58055,-2.11207 -6.24049,-3.35908 -7.91115,-5.38436 -11.76808,-14.26592 -1.79148,-4.12535 -3.72053,-8.49632 -4.28678,-9.71332 -1.58778,-3.41229 -6.75581,-8.28821 -8.78484,-8.28821 -1.00143,0 -2.10063,-0.45324 -2.44268,-1.00719 -2.6787,-4.33826 -19.9645,-7.56154 -31.40637,-5.8563 -1.90718,0.28423 -2.56531,-0.17181 -3.03437,-2.10277 -0.81306,-3.347 -5.35196,-5.68866 -12.30763,-6.34949 -5.35622,-0.50889 -6.03627,-0.33131 -9.12426,2.38252 -3.74365,3.28999 -6.66601,3.72645 -8.68099,1.29622 -3.44758,-4.15795 -19.06951,-11.43473 -28.36301,-13.21163 -3.2972,-0.63043 -11.14807,-1.82441 -17.44636,-2.65328 -10.91653,-1.43668 -11.62222,-1.67398 -15.1071,-5.08005 -3.6161,-3.53435 -3.79553,-3.58683 -16.59069,-4.85352 -7.91248,-0.78331 -13.87934,-1.87836 -15.367,-2.82017 -1.33759,-0.8468 -3.55011,-1.87569 -4.91674,-2.2864 -1.36661,-0.41073 -4.06432,-1.79022 -5.9949,-3.06556 -1.93057,-1.27534 -5.98303,-2.95613 -9.00547,-3.73512 l -5.49533,-1.41632 0.31764,-6.87322 c 0.48476,-10.48926 -3.04139,-17.3741 -8.89833,-17.3741 -2.24492,0 -4.49547,-1.482 -9.49193,-6.25053 -7.866673,-7.50781 -11.402325,-13.82844 -11.402325,-20.38374 0,-4.40652 -0.36369,-5.05732 -5.845023,-10.45933 l -5.845012,-5.76045 -0.689525,-8.27564 c -0.616316,-7.39714 -0.473128,-8.5686 1.348844,-11.03525 2.698431,-3.65325 2.570851,-6.6165 -0.581895,-13.51555 -4.037239,-8.83455 -4.118091,-11.97042 -0.484359,-18.78625 4.225336,-7.92549 4.022706,-11.07766 -1.391567,-21.64853 -3.751242,-7.32393 -4.496179,-9.70728 -4.496179,-14.38508 0,-4.7784 -0.390588,-5.96906 -2.643774,-8.0592 -2.777279,-2.57629 -3.396653,-2.73212 -9.870961,-2.48347 -3.21298,0.12339 -4.965591,-0.56673 -8.713405,-3.43108 -2.580297,-1.97205 -7.693472,-4.51363 -11.362594,-5.64797 C 34.246003,528.86134 29.860885,525.57618 12.217031,509.4056 9.5343498,506.94694 3.9026667,502.86086 0.06133562,500.92458 0.11993965,483.04107 0.05618262,481.13089 -4.1400184e-7,466.13233 1.4620634,467.28347 5.3996906,471.82992 8.7502844,476.23556 c 4.1955936,5.51672 7.2201316,8.47787 9.7160466,9.51242 1.993233,0.82619 4.238316,2.00371 4.989068,2.61671 2.026917,1.65501 8.234277,3.64484 11.423787,3.662 3.557206,0.0192 8.330883,2.46965 9.662492,4.9601 0.565819,1.05823 1.028766,4.11782 1.028766,6.79909 0,7.82462 1.208603,8.69794 12.736297,9.20305 0.685327,0.03 3.045331,1.68166 5.244433,3.67027 3.834191,3.46721 4.215996,3.58846 9.297918,2.95293 4.877914,-0.61003 5.60038,-0.42345 9.081138,2.3453 2.079881,1.65442 4.646322,3.28276 5.703183,3.61851 1.983101,0.63 4.897123,5.27415 4.897123,7.80466 0,0.78913 -1.124051,2.17196 -2.497882,3.07297 -2.220271,1.45614 -2.498601,2.3303 -2.504461,7.86568 -0.0048,4.53204 -0.54704,7.04431 -1.991711,9.22774 -1.091831,1.65014 -1.988101,4.07605 -1.991721,5.39092 -0.0085,3.08297 3.985892,11.11048 5.528433,11.11048 0.6513,0 4.455202,-1.35011 8.453094,-3.00025 7.693262,-3.17543 12.074132,-3.68156 16.670732,-1.92604 1.559,0.59541 9.27027,1.05463 17.3004,1.03026 7.96822,-0.0242 16.11563,0.332 18.10533,0.79148 2.5164,0.58111 4.7975,0.39492 7.49362,-0.61165 7.47088,-2.7892 7.90485,-2.74226 10.16985,1.10021 2.21837,3.76339 1.49914,5.38212 -1.6434,3.69871 -1.18103,-0.63265 -2.96173,-0.67472 -4.76663,-0.11259 -1.5847,0.49355 -6.25341,1.85991 -10.3749,3.03638 -4.1215,1.17644 -8.87442,2.55641 -10.56203,3.06658 -1.68762,0.51017 -4.48618,0.92759 -6.21903,0.92759 -2.47838,0 -3.47591,0.62958 -4.67503,2.9506 -0.83841,1.62282 -1.52439,3.7849 -1.52439,4.80462 0,2.23785 -5.11345,10.60092 -9.0166,14.74669 -1.55357,1.65015 -6.06022,9.94181 -10.0148,18.42593 -6.79262,14.57286 -7.15961,15.72161 -6.63816,20.77875 0.95631,9.27446 9.02063,21.83293 16.27791,25.34941 6.38126,3.092 12.84715,10.18835 15.4467,16.95285 1.16258,3.02526 2.4968,6.47472 2.96492,7.66546 0.64432,1.63892 2.26172,2.45137 6.65645,3.34363 7.22829,1.46759 10.30151,2.65217 10.30151,3.97075 0,1.23236 -3.25258,4.60695 -5.00345,5.19111 -2.06201,0.68799 -0.14797,4.69923 3.02634,6.34228 2.08046,1.07685 6.20691,1.48916 14.90392,1.48916 l 12.02688,0 2.49583,3.95733 c 3.03158,4.80681 5.21338,6.05682 12.44349,7.12913 13.39342,1.98644 22.86353,3.86191 26.92593,5.33245 2.40461,0.87043 5.58022,1.58261 7.05691,1.58261 1.67935,0 3.76113,1.12441 5.55855,3.00225 2.62324,2.74063 3.44486,3.00173 9.42908,2.99633 18.91842,-0.0171 23.22757,0.57691 31.9941,4.41037 4.64919,2.03302 9.07227,4.21078 9.82906,4.83944 0.75678,0.62865 6.4788,1.39282 12.71562,1.69804 10.84164,0.53065 11.48505,0.68676 14.65013,3.55372 4.95902,4.49189 5.80836,5.67418 5.80836,8.08569 0,1.21061 1.68606,5.80559 3.74681,10.21087 3.27642,7.004 4.56925,8.63463 10.29763,12.98821 7.8221,5.9449 11.98485,6.92219 20.22522,4.74819 15.90142,-4.19495 27.1943,-0.86787 42.2832,12.45727 11.70578,10.33748 16.93185,13.01661 25.39114,13.01661 7.05414,0 9.19218,1.00068 10.42151,4.87751 0.62919,1.98427 8.86321,4.35587 19.44543,5.60078 6.175,0.72646 8.33922,1.66364 12.56636,5.44206 4.77683,4.26967 16.33684,7.37283 18.32763,4.91982 0.59748,-0.73616 2.39027,-2.91364 3.984,-4.83881 1.59372,-1.92517 6.59801,-9.00747 11.12061,-15.73834 7.86479,-11.7051 8.26433,-12.57207 9.17392,-19.9055 0.52307,-4.21705 1.37947,-8.46872 1.90312,-9.448 0.52364,-0.97938 0.96208,-3.04785 0.9743,-4.59669 0.0122,-1.54873 0.93132,-3.94103 2.04249,-5.31615 1.11115,-1.37512 4.32503,-5.8755 7.14198,-10.00085 2.81694,-4.12535 6.89411,-9.52581 9.06037,-12.00103 2.16626,-2.47521 4.95113,-6.75057 6.18858,-9.5008 1.23747,-2.75023 3.4055,-7.47564 4.81784,-10.50089 1.41235,-3.02527 3.25744,-7.52564 4.10021,-10.00086 0.84277,-2.47521 2.61722,-7.42563 3.94319,-11.00093 3.8272,-10.31944 4.07744,-13.73791 1.58119,-21.60005 -1.20534,-3.79631 -2.807,-7.61288 -3.55923,-8.48126 -0.75224,-0.86838 -1.39657,-2.89355 -1.43185,-4.50037 -0.0789,-3.59209 -2.2399,-14.06179 -3.07498,-14.89765 -0.33554,-0.33586 -2.24084,0.16773 -4.23401,1.11909 -3.48905,1.66537 -3.67617,1.65825 -5.02737,-0.19136 -1.25002,-1.71111 -1.77627,-1.78619 -4.81371,-0.6868 -1.87565,0.67887 -7.32371,1.23431 -12.10683,1.23431 -7.90925,0 -9.31011,-0.30925 -15.4734,-3.41595 -3.72726,-1.87877 -7.39715,-4.16407 -8.15531,-5.07844 -0.75814,-0.91438 -3.50914,-2.7432 -6.1133,-4.06407 -2.60418,-1.32087 -5.01091,-3.27212 -5.34829,-4.33614 -0.33739,-1.064 -3.87746,-5.1509 -7.86684,-9.082 -5.46559,-5.38576 -7.58248,-8.26305 -8.58855,-11.67358 -1.23606,-4.19019 -1.18581,-4.6756 0.67717,-6.54032 1.65773,-1.65928 2.3859,-1.81409 4.13237,-0.87854 3.1417,1.68296 6.53222,-0.2891 5.10056,-2.96669 -0.57281,-1.0713 -2.29839,-2.5984 -3.83461,-3.39355 -2.86092,-1.48084 -10.13658,-8.93785 -10.13658,-10.38925 0,-0.44417 -4.38378,-5.37901 -9.74173,-10.96633 -15.89352,-16.57391 -18.72606,-20.34514 -25.97888,-34.58823 -3.38202,-6.64157 -4.86484,-10.91212 -5.42963,-15.63738 -0.42734,-3.5753 -1.27655,-9.87584 -1.88712,-14.00119 -0.61058,-4.12535 -1.31367,-15.01685 -1.56243,-24.20333 -0.41611,-15.36645 -0.28882,-17.02343 1.59115,-20.71192 1.1239,-2.20508 2.04345,-4.9152 2.04345,-6.0225 0,-1.89487 0.84662,-4.05444 6.5603,-16.73411 1.28047,-2.84161 3.15742,-5.43 4.17099,-5.752 1.68362,-0.53485 7.25343,-10.24565 7.25343,-12.64612 0,-1.22573 3.23218,-5.92547 7.99321,-11.62251 8.12753,-9.72541 10.01581,-12.7368 20.37401,-32.49221 2.82632,-5.39044 5.32957,-8.92261 6.61224,-9.33009 1.13524,-0.36064 3.16469,-2.40085 4.50989,-4.53377 1.3452,-2.13292 3.46402,-4.40935 4.70849,-5.05873 1.24447,-0.64939 4.57653,-3.25646 7.40458,-5.7935 2.82805,-2.53703 5.86298,-5.19307 6.74428,-5.90232 0.88129,-0.70925 1.60236,-2.1066 1.60236,-3.10521 0,-0.99861 2.5853,-4.1167 5.74511,-6.92907 8.22362,-7.31938 11.24273,-10.40651 15.51091,-15.86044 2.07397,-2.65015 5.04838,-6.3936 6.6098,-8.31876 2.58413,-3.18617 3.89323,-5.34011 8.81336,-14.50124 0.88624,-1.65015 1.98552,-3.67532 2.44286,-4.50038 3.99728,-7.21145 8.83719,-17.19811 8.83719,-18.23468 0,-2.10393 7.12111,-12.67353 8.92461,-13.24647 0.91994,-0.29226 2.69161,-2.44183 3.93705,-4.77684 4.44102,-8.32628 9.64674,-17.37777 11.36775,-19.76581 0.96169,-1.3344 1.74852,-3.07013 1.74852,-3.85718 0,-0.78705 2.13568,-3.81251 4.74596,-6.72323 6.76701,-7.5459 9.70749,-11.40376 11.74003,-15.40278 0.97849,-1.92516 2.8663,-4.8504 4.19513,-6.50055 1.32884,-1.65014 4.2726,-5.9255 6.5417,-9.50081 2.26909,-3.5753 5.50257,-8.17818 7.18549,-10.22862 1.68292,-2.05045 4.38404,-5.36301 6.00249,-7.36127 1.61844,-1.99826 4.59591,-4.67784 6.6166,-5.95464 4.21498,-2.66329 11.31603,-14.62547 12.47341,-21.01225 1.11857,-6.17267 2.97291,-8.93563 8.28849,-12.34983 4.91373,-3.15607 12.31961,-12.86819 15.03626,-19.71862 0.68028,-1.71544 2.70592,-4.54416 4.50142,-6.28606 l 3.26453,-3.16706 4.77088,2.04695 c 4.62722,1.98532 4.75162,2.14965 4.13155,5.458 -0.86516,4.61598 0.64676,5.18751 4.23139,1.59952 l 2.97898,-2.98176 9.81791,3.99851 c 5.39985,2.19919 10.12066,4.32536 10.49067,4.72482 0.37002,0.39948 0.9839,2.6422 1.3642,4.98386 0.67674,4.16694 0.62484,4.27087 -2.43846,4.8841 -4.08156,0.81708 -6.04053,4.64637 -6.04053,11.80767 0,5.0022 -0.44182,6.14806 -4.49618,11.66066 -2.4729,3.36233 -4.49617,6.49636 -4.49617,6.96449 0,0.46813 -2.02328,3.33751 -4.49618,6.37641 -2.4729,3.03888 -4.49618,5.98164 -4.49618,6.53947 0,2.76592 4.09142,0.1604 12.93379,-8.23658 5.35782,-5.08793 10.94086,-10.0644 12.40677,-11.0588 3.62286,-2.45761 8.63057,-12.63656 8.63057,-17.543 0,-3.94515 2.41747,-11.15158 3.74091,-11.15158 0.39415,0 3.08583,0.98289 5.9815,2.18419 4.3047,1.78587 5.26486,2.62611 5.26486,4.60739 0,1.92131 -0.36214,2.27082 -1.74852,1.68753 -6.147,-2.58621 -6.89317,-1.96801 -10.22508,8.47152 -2.66869,8.36152 -4.41743,11.37113 -8.52016,14.66333 -1.98013,1.58894 -4.69831,4.01407 -6.04039,5.38919 -1.3421,1.37511 -3.9796,4.07535 -5.86109,6.00051 -1.8815,1.92516 -5.10926,4.85041 -7.17279,6.50055 -2.06354,1.65014 -4.62503,4.47933 -5.6922,6.28709 -1.0672,1.80775 -3.23509,3.95699 -4.81756,4.77608 -1.58246,0.81909 -2.87721,2.1656 -2.87721,2.99223 0,2.31599 -5.52038,12.71546 -7.88396,14.85205 -1.15915,1.04783 -2.10755,2.68037 -2.10755,3.62785 0,3.13601 2.14191,3.76332 9.99151,2.92629 11.66184,-1.24353 15.61343,-2.42385 19.4741,-5.81672 1.96674,-1.72843 3.89746,-3.14546 4.29049,-3.14893 0.39303,-0.003 1.46228,-1.32178 2.37609,-2.92954 2.41986,-4.25746 7.0882,-6.35551 12.69748,-5.7065 12.4693,1.44271 14.06947,2.12182 14.10154,5.98468 0.0135,1.62516 -0.60396,1.77976 -5.23024,1.30956 -2.88505,-0.29324 -6.85389,-0.82508 -8.81963,-1.18188 -3.33877,-0.60601 -3.86667,-0.32298 -8.0183,4.29895 -2.44432,2.72122 -5.8942,5.69818 -7.66637,6.61547 -1.77218,0.91729 -3.22215,2.09472 -3.22215,2.61651 0,1.98721 -6.05518,4.00035 -12.03237,4.00035 -4.62382,0 -6.76303,0.49311 -8.67715,2.00016 -1.39724,1.10009 -3.71624,2.00185 -5.15335,2.00391 -4.55251,0.007 -8.84266,3.5287 -12.05399,9.89626 -4.94105,9.79732 -13.02001,16.20127 -24.04723,19.06155 -2.46369,0.63905 -7.62677,2.43961 -11.47349,4.00124 -10.45182,4.24306 -16.48164,6.24256 -21.48175,7.12337 -2.4729,0.43562 -6.51946,1.31644 -8.99237,1.95737 -2.47289,0.64092 -6.86713,1.38642 -9.76496,1.65668 l -5.26879,0.49135 -8.54761,17.15756 c -4.70117,9.43665 -9.25218,17.70501 -10.11335,18.37411 -3.99836,3.10656 -6.78252,13.31444 -8.26043,30.28614 -0.45504,5.22544 -1.35194,11.52597 -1.99312,14.00119 -0.64118,2.47521 -1.54688,6.97559 -2.01267,10.00085 -0.46579,3.02526 -1.35893,7.52564 -1.98475,10.00085 -0.62583,2.47521 -1.53116,6.52556 -2.01185,9.00077 -1.95976,10.09135 -2.83418,12.81495 -6.3334,19.72672 -3.01281,5.951 -3.65812,8.29297 -3.65812,13.27609 0,4.90702 -0.6512,7.34477 -3.44587,12.89942 -1.89523,3.76694 -4.14331,7.11686 -4.99575,7.44428 -0.94465,0.36284 -1.54988,1.82044 -1.54988,3.7326 0,1.92681 -1.01146,4.34048 -2.62149,6.25567 -2.41845,2.87684 -2.57483,3.61838 -2.01919,9.57427 0.33126,3.55074 0.94891,6.76779 1.37255,7.149 0.42363,0.3812 2.63457,0.97352 4.91316,1.31627 3.7857,0.56944 4.66898,0.23554 10.2441,-3.87247 3.35566,-2.4726 6.77864,-4.49564 7.60661,-4.49564 1.66892,0 18.01141,8.50654 20.63596,10.74137 1.74907,1.48935 8.24081,1.35605 25.31268,-0.51975 11.39488,-1.25202 16.92379,-0.1686 30.47411,5.97157 10.68069,4.83983 13.07011,5.80868 14.32558,5.80868 0.69786,0 2.81828,1.61693 4.71206,3.59319 1.89378,1.97624 7.265,5.52798 11.93603,7.89274 6.25949,3.16893 10.13797,6.01779 14.74915,10.83366 l 6.25639,6.5341 -0.6014,6.82496 c -0.33076,3.75374 -1.03101,10.42528 -1.55608,14.82565 -1.85985,15.58621 -3.16925,36.99586 -2.82884,46.25393 0.0556,1.51263 -0.42119,5.22545 -1.05955,8.2507 -0.63837,3.02527 -1.37759,9.00186 -1.64272,13.28132 -0.45897,7.40826 -0.34679,7.94304 2.34265,11.16826 1.55359,1.86308 3.65311,4.57705 4.66562,6.03107 3.51183,5.0431 9.50092,8.52268 14.66935,8.52268 6.39161,0 12.11552,2.18297 19.02287,7.25492 3.18043,2.33532 7.1197,4.98668 8.75392,5.89188 1.73085,0.95872 5.59432,5.65576 9.25427,11.25095 3.45561,5.28283 6.64823,9.60514 7.0947,9.60514 0.44646,0 0.81175,7.20062 0.81175,16.00136 0,8.80075 -0.35237,16.00136 -0.78306,16.00136 -0.43068,0 -3.10777,-1.46262 -5.94908,-3.25027 -2.84131,-1.78766 -7.45879,-4.60039 -10.26103,-6.25053 -11.68414,-6.88037 -13.11608,-8.00484 -13.66948,-10.73447 -0.3713,-1.83137 -2.24564,-3.91083 -5.67819,-6.29959 -12.0269,-8.36966 -13.71468,-9.75714 -15.07741,-12.39485 -2.98146,-5.77092 -11.88879,-11.72682 -13.5396,-9.05327 -1.1048,1.78928 -2.72073,0.42149 -5.12661,-4.33932 -1.80208,-3.566 -7.36173,-10.72082 -11.02118,-14.18335 -0.58132,-0.55005 -2.50909,-2.42124 -4.28393,-4.15818 -1.77483,-1.73695 -5.98112,-4.54968 -9.34733,-6.25053 -5.74459,-2.90258 -6.80093,-3.09244 -17.20519,-3.09244 -12.14927,0 -13.36444,0.3794 -19.67372,6.14247 -2.32324,2.12211 -4.63932,3.85837 -5.14685,3.85837 -0.50754,0 -1.81375,1.51147 -2.90269,3.35882 -3.194,5.41849 -24.24461,18.64306 -29.67565,18.64306 -1.87208,0 -2.84822,0.74093 -3.62329,2.75024 -1.21109,3.13964 -0.43837,12.4475 1.59824,19.25163 0.74088,2.47521 2.50785,8.39159 3.9266,13.1475 3.14029,10.52685 3.22912,14.66058 0.43285,20.14517 -1.18067,2.3158 -3.86437,9.02951 -5.96375,14.91936 -5.33737,14.97398 -11.88914,27.55872 -17.92754,34.4354 -12.77455,14.54784 -16.54686,23.03136 -19.50432,43.86333 -0.23426,1.65015 -2.43995,5.92551 -4.90152,9.50082 -2.46157,3.5753 -5.39525,8.39451 -6.51928,10.70951 -1.12402,2.3149 -2.51781,4.50218 -3.0973,4.86071 -0.57948,0.35843 -2.53824,2.96475 -4.3528,5.7919 -3.64942,5.68578 -7.99621,10.6718 -9.22646,10.58319 -0.43839,-0.0316 -2.36372,-0.93168 -4.27851,-2.00016 z m 49.44237,-185.39585 c 11.78725,-0.21076 15.48684,-0.92953 15.48684,-3.00886 0,-1.67618 -2.42055,-2.62612 -16.98557,-6.66595 -2.47289,-0.6859 -6.16433,-2.0665 -8.20318,-3.06802 -2.03886,-1.00152 -5.08873,-1.82094 -6.7775,-1.82094 -1.68875,0 -5.41601,-1.19167 -8.28278,-2.64817 -10.16017,-5.16195 -18.56895,-2.94216 -17.08013,4.50892 0.68573,3.43185 2.84869,5.13985 6.509,5.13985 1.24643,0 3.7512,1.44064 5.56617,3.20142 4.32716,4.19798 8.73209,5.77156 14.28032,5.10137 2.47289,-0.29871 9.44197,-0.63154 15.48683,-0.73962 z m -36.45674,-26.54187 c -1.27709,-2.38848 -4.12124,-4.02327 -6.9996,-4.02327 -2.67789,0 -1.78089,1.5562 2.35039,4.07766 4.21982,2.57552 6.04396,2.55417 4.64921,-0.0544 z m 59.43722,-3.8533 c 10.57878,-1.93425 17.54556,-4.91378 27.7497,-11.86792 15.18299,-10.34723 19.5428,-13.22515 21.70826,-14.32969 1.37383,-0.70074 2.82822,-1.76926 3.23195,-2.37448 1.519,-2.27705 0.68988,-9.56408 -1.66777,-14.65755 -1.95801,-4.23012 -2.32097,-6.24877 -1.86098,-10.35017 0.77949,-6.95015 2.01592,-8.23224 9.83281,-10.196 1.84384,-0.4632 2.45381,-0.21659 2.45381,0.99211 0,0.88471 0.44962,1.60855 0.99915,1.60855 0.54953,0 0.99915,-0.69299 0.99915,-1.53997 0,-3.97877 8.34598,-16.89606 14.10427,-21.82955 l 4.02638,-3.44965 -1.59736,-3.09182 c -0.87854,-1.70051 -2.22296,-3.09183 -2.98758,-3.09183 -0.76463,0 -3.33839,-0.83781 -5.71945,-1.8618 -4.20808,-1.80971 -8.54779,-7.03809 -11.82855,-14.25073 -1.88942,-4.15385 -6.83365,-5.88934 -16.77809,-5.88934 -6.46532,0 -10.14134,-0.54476 -14.20402,-2.10495 -3.01466,-1.15774 -7.23865,-2.75527 -9.38662,-3.55008 -2.14797,-0.79481 -4.84569,-1.96596 -5.99491,-2.60257 -4.92742,-2.72955 -29.97895,-4.58712 -35.8241,-2.65636 -3.31159,1.09388 -4.62252,0.96152 -10.99066,-1.10964 -3.97682,-1.29341 -10.20427,-3.81741 -13.83876,-5.6089 -5.33283,-2.6286 -6.71671,-3.80044 -7.17057,-6.07184 -0.47683,-2.38638 -1.96889,-3.49804 -9.80685,-7.30663 -11.444,-5.56085 -14.28706,-7.88434 -17.56144,-14.35204 -2.17313,-4.29248 -2.41182,-5.54899 -1.5089,-7.94331 0.58991,-1.56433 0.82634,-3.48648 0.5254,-4.27146 -0.56906,-1.48432 -3.9144,-1.98813 -4.49651,-0.67717 -0.63452,1.42901 -8.73908,6.45637 -12.48773,7.74631 -2.5101,0.86373 -3.97709,2.08095 -4.39943,3.65034 -0.34848,1.29498 -1.82458,4.70226 -3.28019,7.57172 -1.45562,2.86946 -2.65313,6.01972 -2.66112,7.00059 -0.0168,2.06008 -2.54407,9.62804 -4.23875,12.69304 -2.86153,5.17536 -4.02712,27.50546 -1.85797,35.59431 0.66377,2.47522 1.56573,6.13435 2.00437,8.13139 0.43863,1.99707 2.10414,5.72059 3.70114,8.27454 11.77341,18.82819 14.38374,22.30047 18.9051,25.14768 3.15995,1.9899 5.45359,4.46355 7.04655,7.59955 3.09556,6.09415 7.71217,12.89631 10.41336,15.34312 2.1527,1.94999 2.16855,1.94844 3.92725,-0.38531 1.49836,-1.98828 2.08866,-2.17025 3.89722,-1.20143 1.17228,0.62796 2.65233,2.14402 3.28901,3.36903 1.34249,2.58298 7.12935,9.30512 18.29065,21.24687 9.43208,10.09157 14.87485,12.75483 25.29379,12.37676 3.98746,-0.14469 6.77428,0.228 7.54147,1.00856 0.70511,0.71739 2.47743,1.01581 4.21431,0.70961 1.6486,-0.29065 5.24554,-0.9395 7.99321,-1.44189 z m -73.30853,-7.44142 c -1.66346,-1.66501 -2.60559,-0.0108 -1.05732,1.85649 0.93638,1.12932 1.47793,1.26419 1.75351,0.4367 0.21929,-0.65849 -0.094,-1.69043 -0.69619,-2.29319 z m 166.21272,-11.69692 c 1.3831,-2.73194 2.51472,-5.90456 2.51472,-7.05026 0,-2.6784 -2.58407,-7.79389 -5.54877,-10.98451 -1.64852,-1.77416 -2.41332,-3.94875 -2.6336,-7.48833 -0.30747,-4.94068 -0.34844,-4.99602 -4.30702,-5.81737 -10.91187,-2.26407 -11.38246,-2.20685 -15.57811,1.89393 -3.75951,3.6745 -3.90533,4.06289 -3.90533,10.40222 0,6.54154 0.0315,6.6158 4.74597,11.20058 3.88887,3.78185 18.67174,12.5703 21.46491,12.76093 0.40289,0.0275 1.86415,-2.18524 3.24723,-4.91719 z m 4.90569,-39.6184 c 1.46112,-3.81115 0.57654,-7.57309 -2.40614,-10.23285 -1.65694,-1.47756 -4.54926,-4.14908 -6.42739,-5.93673 -1.87812,-1.78765 -4.4566,-3.24861 -5.72995,-3.24655 -3.57179,0.006 -8.65907,3.61266 -10.47681,7.42804 -1.52666,3.20444 -1.52414,3.62414 0.0359,6.00736 1.2408,1.89547 2.53797,2.56223 4.98474,2.56223 1.81911,0 3.62863,0.32146 4.02116,0.71435 0.68307,0.68371 11.87426,3.9689 14.24994,4.1831 0.62813,0.0566 1.41496,-0.60889 1.74851,-1.47895 z M 490.68284,464.28939 c -1.88974,-7.00559 -0.11824,-14.56325 4.36561,-18.62487 2.22926,-2.01934 3.24075,-4.81398 5.11344,-14.12792 0.66358,-3.30028 2.01095,-8.02568 2.99419,-10.50089 3.91138,-9.84659 6.3447,-18.76899 6.54582,-24.00205 0.20683,-5.38154 1.23015,-8.76735 3.6929,-12.21842 1.0107,-1.41631 0.74827,-2.69182 -1.49635,-7.27277 -1.49709,-3.05539 -2.72199,-6.22033 -2.72199,-7.03321 0,-0.81289 -0.18148,-1.47797 -0.40327,-1.47797 -1.49704,0 -8.5232,7.59635 -12.16128,13.14817 -2.39588,3.6562 -5.77214,7.70654 -7.50282,9.00077 -1.73066,1.29423 -4.88896,4.15329 -7.01843,6.35348 -2.12948,2.20019 -6.11639,6.25053 -8.8598,9.00077 -3.50805,3.51674 -5.48351,6.56158 -6.65792,10.26202 -1.85291,5.83828 -1.33299,7.32874 1.8602,5.33269 1.82075,-1.13813 2.30021,-1.09704 3.3088,0.28357 1.22871,1.68193 2.87792,12.28628 2.58548,16.62448 -1.39719,20.72617 -1.47261,19.57921 1.43812,21.87095 1.48396,1.16836 4.32549,2.57576 6.31449,3.12753 1.98901,0.55176 4.29081,1.44647 5.11511,1.98823 2.90192,1.90729 4.28458,1.21964 3.4877,-1.73456 z m -33.69846,-18.17855 c 0.95423,-0.5099 2.48667,-1.15734 3.40543,-1.43876 2.5145,-0.77023 7.10265,-9.17575 6.33317,-11.60243 -0.80616,-2.54238 -4.99602,-3.70153 -7.09049,-1.96165 -0.85733,0.71218 -2.47754,3.12514 -3.60047,5.36212 -1.12293,2.23699 -2.72579,4.84638 -3.5619,5.79864 -1.23496,1.40651 -1.2839,2.01638 -0.26083,3.25027 1.45916,1.75983 2.37649,1.87351 4.77509,0.59181 z m 155.95955,-190.4848 c 3.10174,-0.76765 6.87053,-1.67492 8.37506,-2.01617 3.70836,-0.84112 5.58258,-4.80334 13.21479,-27.93689 9.27245,-28.10518 9.78601,-38.65719 1.88142,-38.65719 -1.41042,0 -4.47022,1.60927 -6.99114,3.6769 -5.93613,4.86877 -17.84286,19.3248 -22.83039,27.71852 -2.19813,3.69933 -5.42763,8.83713 -7.17668,11.41734 -1.74906,2.5802 -4.37587,6.60188 -5.83737,8.93705 l -2.65728,4.24576 3.41416,6.22769 c 4.38911,8.00605 7.60506,9.10992 18.60743,6.38699 z m 37.4791,-28.53377 c 1.41573,-2.71005 3.29792,-8.22302 4.18265,-12.25104 0.88473,-4.02803 3.37049,-12.52824 5.52389,-18.88936 4.0076,-11.83839 4.91479,-17.93984 2.66634,-17.93311 -2.06482,0.006 -7.5285,3.73866 -9.19155,6.27915 -0.85618,1.30792 -2.24809,6.16731 -3.09315,10.79866 -0.84505,4.63134 -2.44975,13.16228 -3.56601,18.95765 -1.80476,9.36988 -1.85801,14.23646 -0.18838,17.21534 0.70609,1.25978 1.00207,0.92254 3.66621,-4.17729 z m 60.58191,-84.0841 c -0.8243,-0.48747 -9.14223,-3.86863 -18.48429,-7.5137 -9.34207,-3.64506 -18.12165,-7.4343 -19.51016,-8.42054 -1.38854,-0.98623 -5.3227,-2.81434 -8.74258,-4.06245 -6.98376,-2.5488 -7.00895,-2.61158 -4.63042,-11.54202 1.32598,-4.97852 1.40484,-7.27881 0.47866,-13.961291 -0.73948,-5.3354 -0.80632,-10.832536 -0.20062,-16.501398 1.24578,-11.659643 9.30948,-41.901057 16.13336,-60.50515 3.31972,-9.05061 4.94004,-15.9441071 4.31238,-18.3465511 -0.56208,-2.15136295 -0.52913,-2.15519324714 18.53733,-2.15519324714 l 19.1004,0 0,72.00612734714 0,72.006136 -2.74767,-0.0588 c -1.51121,-0.0323 -3.42209,-0.45766 -4.24639,-0.94515 z"
       style="fill:#659acb;stroke:none;display:inline"
       inkscape:connector-curvature="0" />
  </g>
  <g
     inkscape:groupmode="layer"
     id="layer3"
     inkscape:label="Over water borders"
     style="display:inline">
    <path
       style="fill:none;stroke:#ffffff;stroke-width:2;stroke-linecap:round;stroke-linejoin:miter;stroke-miterlimit:4;stroke-opacity:1;stroke-dasharray:4, 4;stroke-dashoffset:0;display:inline"
       d="m 592.59636,619.65523 c 6.1045,-10.04331 7.48475,-16.34138 6.06158,-26.47089"
       id="path3205"
       sodipodi:nodetypes="cs"
       inkscape:connector-curvature="0" />
    <path
       style="color:#000000;fill:none;stroke:#ffffff;stroke-width:2;stroke-linecap:round;stroke-linejoin:miter;stroke-miterlimit:4;stroke-opacity:1;stroke-dasharray:4, 4;stroke-dashoffset:0;marker:none;visibility:visible;display:inline;overflow:visible;enable-background:accumulate"
       d="m 437.22306,473.06374 -20.43647,-6.20039"
       id="path3780"
       inkscape:connector-curvature="0"
       sodipodi:nodetypes="cc" />
    <path
       style="display:inline;fill:none;stroke:#ffffff;stroke-width:2;stroke-linecap:round;stroke-linejoin:miter;stroke-miterlimit:4;stroke-opacity:1;stroke-dasharray:4, 4;stroke-dashoffset:0"
       d="m 466.94766,422.23825 c -0.0173,3.70787 -3.84854,6.05583 -6.36168,9.23285 -2.7608,4.25446 -5.57842,7.85742 -8.04279,12.66197 l -7.16495,13.96886"
       id="path3194"
       sodipodi:nodetypes="cczz"
       inkscape:connector-curvature="0" />
    <path
       style="display:inline;fill:none;stroke:#ffffff;stroke-width:2;stroke-linecap:round;stroke-linejoin:miter;stroke-miterlimit:4;stroke-opacity:1;stroke-dasharray:4, 4;stroke-dashoffset:0"
       d="m 488.9918,465.35604 c 0.83744,5.4527 1.66117,10.88605 2.35692,16.3598"
       id="path3201"
       sodipodi:nodetypes="cc"
       inkscape:connector-curvature="0" />
    <path
       style="fill:none;stroke:#ffffff;stroke-width:2;stroke-linecap:round;stroke-linejoin:miter;stroke-opacity:1;color:#000000;stroke-miterlimit:4;stroke-dasharray:4, 4;stroke-dashoffset:0;marker:none;visibility:visible;display:inline;overflow:visible;enable-background:accumulate"
       d="m 492.45785,632.69743 c 0,0 -0.83185,-1.941 -7.07076,-8.17991 -6.23891,-6.2389 -14.97338,-10.53682 -14.97338,-10.53682"
       id="path3805"
       inkscape:connector-curvature="0" />
  </g>
</svg>
